<?xml version="1.0" encoding="UTF-8" standalone="no"?>
<!DOCTYPE svg PUBLIC "-//W3C//DTD SVG 1.1//EN" "http://www.w3.org/Graphics/SVG/1.1/DTD/svg11.dtd">
<svg xmlns="http://www.w3.org/2000/svg" version="1.1" viewBox="0.00 0.00 1024.00 1024.00">
<g stroke-width="2.00" fill="none" stroke-linecap="butt">
<path stroke="#835b2c" vector-effect="non-scaling-stroke" d="
  M 372.73 654.11
  Q 363.20 656.50 357.04 663.02
  C 355.13 665.03 351.62 668.51 349.60 671.56
  Q 335.69 692.64 333.96 716.26
  C 333.32 725.12 335.84 738.31 342.18 744.54
  C 354.36 756.49 371.62 752.78 382.38 741.39
  Q 387.96 735.49 391.62 729.13
  A 0.48 0.48 0.0 0 1 392.31 728.97
  Q 406.16 738.79 423.12 742.14
  C 442.61 745.98 462.02 739.95 475.99 725.94
  C 483.73 718.18 488.42 710.68 492.81 701.26
  A 1.52 1.49 9.5 0 1 494.04 700.40
  C 523.05 697.85 550.81 687.00 574.50 670.32
  A 0.71 0.70 -32.2 0 1 575.52 670.55
  Q 578.12 675.08 579.56 679.43
  C 581.79 686.20 583.13 689.67 584.42 695.68
  C 587.31 709.16 591.33 727.53 602.24 737.17
  Q 608.45 742.66 613.87 744.17
  Q 627.64 748.02 641.65 742.17
  C 658.69 735.04 674.26 722.52 686.58 709.33
  C 700.42 694.50 713.97 672.23 706.02 651.22
  Q 701.52 639.32 688.71 635.00
  C 678.88 631.68 666.27 634.60 657.64 639.37
  Q 651.96 642.51 647.89 645.54
  A 0.38 0.38 0.0 0 1 647.29 645.31
  Q 645.33 634.78 642.20 625.38
  A 1.07 1.04 56.5 0 1 642.39 624.38
  C 654.35 610.06 662.48 593.92 669.49 576.51
  Q 671.15 572.39 672.34 567.81
  A 0.98 0.97 18.4 0 1 673.65 567.16
  C 684.77 571.80 698.69 572.13 709.79 569.68
  C 734.40 564.24 754.15 545.75 764.50 522.88
  A 2.32 2.27 -2.9 0 1 765.47 521.83
  C 778.73 514.42 788.28 501.06 790.27 485.96
  Q 791.57 476.09 788.33 464.83
  Q 783.53 448.18 770.58 435.75
  Q 764.28 429.70 757.26 426.95
  C 738.82 419.70 717.80 426.80 709.08 444.82
  Q 706.02 451.14 706.44 457.56
  A 2.49 2.49 0.0 0 1 705.18 459.89
  C 689.56 468.70 692.76 488.48 703.84 499.47
  A 0.51 0.51 0.0 0 1 703.67 500.31
  Q 695.64 503.59 687.69 500.08
  A 1.54 1.52 -75.6 0 1 686.79 498.54
  Q 687.40 491.78 687.60 488.63
  Q 688.28 477.61 687.75 456.76
  Q 687.03 428.77 679.85 400.50
  Q 677.89 392.79 675.53 386.71
  C 670.96 374.99 668.63 368.98 663.22 359.82
  A 1.03 1.03 0.0 0 1 663.58 358.42
  C 684.26 346.02 699.34 326.30 705.98 303.29
  Q 707.47 298.11 707.92 291.74
  Q 708.44 284.51 708.06 279.98
  Q 706.12 256.30 688.57 243.20
  C 674.21 232.47 652.89 230.55 635.47 233.01
  C 617.44 235.56 601.78 241.75 585.67 249.71
  A 1.39 1.38 -33.4 0 1 584.00 249.37
  Q 560.82 222.29 525.31 217.44
  C 486.22 212.10 446.00 224.84 414.63 248.15
  Q 393.04 264.20 380.18 287.67
  C 370.69 305.00 366.08 323.96 366.23 343.93
  Q 366.28 351.18 366.51 355.24
  Q 366.86 361.41 370.65 376.59
  Q 372.33 383.31 376.13 390.72
  A 1.47 1.47 0.0 0 1 375.99 392.29
  L 373.19 395.90
  A 1.14 1.11 -69.7 0 1 372.29 396.33
  L 346.90 395.50
  A 0.51 0.50 -2.0 0 1 346.42 395.06
  Q 345.75 389.57 345.33 384.92
  C 344.61 376.88 341.97 377.88 335.41 377.51
  A 0.60 0.59 88.2 0 1 334.86 376.98
  L 333.49 363.96
  A 1.41 1.40 68.5 0 1 334.04 362.68
  C 343.35 355.55 347.38 343.81 344.45 332.68
  C 341.28 320.63 333.09 313.16 320.48 313.54
  Q 306.69 313.96 297.51 323.70
  C 288.26 333.52 287.00 348.23 295.63 358.91
  C 298.64 362.63 302.25 365.10 306.88 366.49
  A 0.31 0.30 5.9 0 1 307.10 366.75
  L 308.56 380.54
  A 0.56 0.55 -9.5 0 1 308.13 381.13
  C 304.33 382.06 298.02 382.81 298.72 388.29
  Q 299.63 395.48 300.12 401.82
  A 0.65 0.64 79.4 0 1 299.67 402.49
  Q 293.33 404.41 285.04 407.80
  Q 277.62 410.83 268.73 418.19
  C 259.98 425.44 252.46 438.75 252.69 450.01
  C 252.83 456.61 253.61 464.62 255.30 471.96
  Q 255.53 472.98 257.28 483.25
  A 2.52 2.43 -38.1 0 1 257.07 484.76
  Q 252.61 494.08 250.98 500.45
  Q 247.18 515.26 247.69 533.67
  A 1.48 1.47 64.9 0 1 247.32 534.70
  Q 240.17 542.81 237.52 548.99
  Q 232.61 560.49 233.60 573.53
  C 234.35 583.27 239.66 594.36 247.32 600.38
  C 253.15 604.98 261.61 609.31 269.03 609.74
  Q 274.46 610.05 278.10 609.75
  A 1.18 1.18 0.0 0 1 279.37 610.84
  Q 280.08 619.50 284.72 626.65
  C 292.89 639.23 311.95 643.11 325.49 644.17
  Q 344.81 645.67 362.14 642.34
  A 1.33 1.32 63.9 0 1 363.38 642.77
  L 372.86 653.68
  A 0.26 0.26 0.0 0 1 372.73 654.11"
/>
<path stroke="#f5c28b" vector-effect="non-scaling-stroke" d="
  M 246.12 755.90
  Q 239.92 732.22 225.29 712.48
  C 214.40 697.78 198.98 687.83 180.49 686.03
  Q 171.44 685.15 162.37 688.60
  Q 159.49 689.69 158.20 691.68
  C 155.70 695.57 158.82 699.99 163.32 698.59
  Q 178.77 693.75 193.77 700.54
  C 223.00 713.76 236.84 750.98 242.06 780.61
  C 242.45 782.83 243.18 783.99 245.40 784.43
  Q 249.99 785.32 251.75 782.34
  A 2.25 2.21 62.3 0 0 252.06 781.32
  C 253.13 765.18 257.31 747.01 268.59 734.66
  Q 273.61 729.17 280.92 727.28
  C 289.18 725.13 296.48 729.35 302.33 735.14
  C 305.60 738.37 307.45 741.90 310.34 746.22
  A 2.81 2.79 4.2 0 0 310.81 746.76
  Q 312.66 748.38 314.51 746.97
  C 316.01 745.82 315.72 743.71 315.25 742.25
  C 310.34 727.17 299.32 714.69 281.81 716.43
  C 271.22 717.48 261.82 724.63 256.11 733.60
  C 252.04 739.99 248.44 748.21 246.80 755.88
  A 0.35 0.35 0.0 0 1 246.12 755.90"
/>
<path stroke="#835b2c" vector-effect="non-scaling-stroke" d="
  M 347.53 787.80
  C 347.53 791.68 363.33 793.16 365.87 793.44
  Q 383.21 795.38 401.50 796.36
  Q 444.37 798.65 486.56 798.64
  Q 528.76 798.64 571.62 796.34
  Q 589.92 795.36 607.26 793.41
  C 609.79 793.13 625.59 791.65 625.59 787.76
  C 625.59 783.88 609.79 782.40 607.26 782.12
  Q 589.91 780.18 571.62 779.21
  Q 528.76 776.91 486.56 776.92
  Q 444.36 776.92 401.50 779.22
  Q 383.21 780.20 365.87 782.15
  C 363.33 782.43 347.53 783.91 347.53 787.80"
/>
<path stroke="#87887f" vector-effect="non-scaling-stroke" d="
  M 442.90 334.17
  Q 448.72 330.67 459.20 324.95
  Q 490.87 307.64 512.28 295.02
  C 532.35 283.18 555.48 267.48 575.70 255.17
  A 0.61 0.60 -35.8 0 0 575.85 254.26
  Q 560.10 235.67 536.55 229.00
  C 507.80 220.84 475.20 226.33 448.20 238.75
  A 3.79 3.79 0.0 0 0 446.73 239.95
  C 435.32 255.49 430.98 273.60 432.21 292.02
  Q 433.63 313.42 441.89 333.83
  A 0.70 0.70 0.0 0 0 442.90 334.17"
/>
<path stroke="#693b22" vector-effect="non-scaling-stroke" d="
  M 537.39 307.01
  C 549.40 305.23 561.82 304.85 572.99 305.54
  Q 592.16 306.74 611.26 314.07
  C 630.32 321.38 645.84 334.35 657.37 351.02
  A 1.32 1.31 -36.7 0 0 659.28 351.29
  L 660.76 350.09"
/>
<path stroke="#824c2b" vector-effect="non-scaling-stroke" d="
  M 660.76 350.09
  Q 686.89 332.60 696.51 302.90
  Q 700.22 291.43 699.17 280.14
  Q 698.33 271.14 694.32 263.08
  C 691.92 258.25 685.96 251.89 682.12 249.46
  Q 677.17 246.33 666.71 243.02
  Q 659.72 240.81 650.16 241.05
  C 636.70 241.39 625.89 243.11 614.03 247.11
  Q 604.70 250.26 602.71 251.20
  Q 596.35 254.22 584.69 260.21
  Q 579.42 262.91 567.41 270.55
  Q 552.50 280.04 542.64 286.51
  C 511.91 306.67 485.68 320.61 451.58 339.31
  Q 451.15 339.55 451.10 339.92
  Q 451.06 340.29 451.47 340.35
  C 461.76 341.87 473.60 339.30 483.44 336.09
  Q 486.51 335.09 492.04 332.71
  C 506.70 326.40 520.37 318.13 533.02 309.01
  Q 534.19 308.16 537.39 307.01"
/>
<path stroke="#d6672e" vector-effect="non-scaling-stroke" d="
  M 660.76 350.09
  Q 660.29 349.83 660.39 349.19
  A 0.80 0.80 0.0 0 1 660.74 348.66
  Q 666.53 344.72 670.11 339.16
  A 9.11 9.00 -6.0 0 1 671.47 337.50
  Q 675.11 334.02 675.61 333.11
  Q 679.25 326.54 681.69 322.54
  C 686.79 314.16 688.37 305.76 689.71 297.02
  Q 690.89 289.34 689.65 284.49
  C 687.65 276.66 684.67 271.58 679.85 265.43
  Q 677.97 263.04 674.48 261.47
  C 667.54 258.35 663.36 255.87 656.24 254.90
  Q 653.87 254.58 648.23 254.35
  Q 635.43 253.85 623.22 257.28
  Q 612.91 260.18 605.80 263.31
  Q 597.24 267.09 582.31 275.58
  Q 577.88 278.10 572.29 282.04
  Q 568.23 284.90 557.17 291.92
  Q 555.50 292.98 552.63 295.36
  Q 550.77 296.89 548.00 298.65
  Q 542.33 302.24 537.39 307.01"
/>
<path stroke="#824c2b" vector-effect="non-scaling-stroke" d="
  M 431.79 247.45
  Q 430.88 247.72 430.02 248.26
  C 411.42 259.85 395.18 276.85 385.69 296.58
  Q 373.05 322.87 375.57 353.47
  Q 376.82 368.65 382.27 383.11
  A 0.40 0.40 0.0 0 0 382.96 383.21
  Q 397.58 364.75 417.22 350.48
  Q 426.77 343.54 433.49 339.48
  A 0.83 0.82 -27.0 0 0 433.83 338.47
  Q 429.34 327.45 426.22 313.99
  Q 422.34 297.24 423.64 277.64
  Q 424.66 262.23 432.18 247.92
  A 0.33 0.33 0.0 0 0 431.79 247.45"
/>
<path stroke="#8a773f" vector-effect="non-scaling-stroke" d="
  M 443.63 347.67
  L 440.40 346.79
  A 1.34 1.32 -52.3 0 0 439.39 346.93
  C 408.39 365.30 384.58 391.46 367.49 422.95
  A 0.60 0.59 14.2 0 0 368.02 423.83
  C 390.61 423.73 411.67 432.02 426.55 448.88
  Q 430.19 453.01 433.87 459.53
  Q 438.40 467.56 439.61 471.26
  Q 449.10 500.23 440.03 529.56
  Q 434.58 547.16 424.75 561.25
  Q 404.99 589.56 373.34 606.91"
/>
<path stroke="#766130" vector-effect="non-scaling-stroke" d="
  M 373.34 606.91
  L 356.86 614.41
  A 0.73 0.72 63.6 0 0 356.53 615.41
  Q 372.10 644.07 396.84 663.11
  C 403.42 668.18 411.36 673.06 417.87 676.39
  Q 447.39 691.46 479.61 691.82
  C 511.86 692.18 543.21 681.15 569.88 662.43
  A 0.80 0.79 -47.6 0 0 569.82 661.09
  L 563.14 657.23
  A 1.16 1.15 -55.3 0 1 562.83 655.49
  C 564.77 653.18 569.98 653.95 572.30 655.18
  Q 578.45 658.46 581.64 664.44
  A 0.38 0.38 0.0 0 0 582.28 664.50
  L 585.22 660.67"
/>
<path stroke="#8a773f" vector-effect="non-scaling-stroke" d="
  M 585.22 660.67
  C 597.31 645.79 615.43 633.21 634.94 632.86
  A 0.47 0.47 0.0 0 0 635.38 632.26
  C 630.72 616.65 619.29 602.94 602.75 599.79
  Q 589.67 597.29 576.88 600.87
  Q 567.89 603.40 562.74 605.78
  Q 545.70 613.67 530.32 625.32
  Q 521.92 631.68 511.93 639.95
  C 509.34 642.09 504.82 640.76 506.48 636.52
  Q 507.23 634.60 508.60 633.24
  C 524.47 617.50 543.17 604.50 564.15 595.77
  Q 569.48 593.55 576.28 592.06
  C 586.34 589.84 594.49 589.13 603.01 590.77
  Q 626.06 595.22 637.29 615.58
  A 0.56 0.56 0.0 0 0 638.24 615.63
  Q 656.08 590.13 665.31 560.10
  Q 673.00 535.07 676.38 508.89
  C 677.44 500.70 678.24 489.88 678.51 484.04
  C 680.21 446.61 676.35 413.11 662.91 379.82
  Q 658.11 367.92 649.46 355.77
  Q 638.65 340.57 623.32 330.94"
/>
<path stroke="#766130" vector-effect="non-scaling-stroke" d="
  M 623.32 330.94
  C 615.81 326.08 610.32 323.63 601.99 320.77
  C 580.19 313.30 555.61 312.41 532.91 316.52
  A 3.61 3.59 -70.3 0 0 531.16 317.35
  C 513.33 332.77 491.90 345.22 468.12 348.65
  Q 456.40 350.35 443.63 347.67"
/>
<path stroke="#eab850" vector-effect="non-scaling-stroke" d="
  M 623.32 330.94
  Q 620.29 330.62 617.30 329.92
  Q 612.35 328.77 611.33 328.64
  C 607.63 328.18 604.05 327.31 600.12 326.74
  Q 572.87 322.77 545.30 329.93
  Q 533.17 333.08 526.42 336.99
  Q 519.87 340.78 516.65 341.97
  Q 513.08 343.28 508.01 345.91
  Q 501.96 349.05 491.35 352.10
  C 487.29 353.27 483.47 353.57 479.31 354.49
  C 468.62 356.86 454.79 354.21 445.75 350.00
  Q 445.10 349.70 443.63 347.67"
/>
<path stroke="#eab850" vector-effect="non-scaling-stroke" d="
  M 585.22 660.67
  Q 582.06 656.01 578.23 652.78
  Q 573.31 648.62 566.47 650.15
  Q 562.57 651.03 560.32 652.34
  Q 550.52 658.05 544.40 661.96
  C 539.64 665.00 535.31 666.90 529.92 669.94
  C 526.75 671.73 522.97 672.84 519.76 674.35
  Q 516.41 675.93 511.94 677.04
  Q 502.19 679.46 495.26 680.44
  Q 487.42 681.55 473.28 680.41
  C 453.67 678.82 432.54 669.31 416.69 657.90
  Q 412.07 654.58 409.81 652.55
  C 406.56 649.61 400.98 645.56 397.77 641.67
  Q 394.81 638.06 392.69 636.02
  C 388.54 631.98 384.84 626.23 380.59 620.65
  Q 377.13 616.12 373.34 606.91"
/>
<path stroke="#796f57" vector-effect="non-scaling-stroke" d="
  M 326.32 377.78
  L 324.47 360.29
  A 2.33 2.32 -17.7 0 1 325.65 358.02
  Q 331.89 354.50 334.72 348.26
  C 338.35 340.30 336.59 329.64 328.97 324.66
  C 322.85 320.66 312.32 322.83 306.84 327.12
  Q 300.81 331.84 299.49 338.25
  Q 297.00 350.33 306.88 357.19
  C 308.25 358.15 310.94 359.04 313.49 359.84
  A 2.48 2.47 5.8 0 1 315.21 361.94
  L 317.00 378.89
  A 0.37 0.37 0.0 0 0 317.41 379.22
  L 325.88 378.32
  A 0.49 0.48 -6.3 0 0 326.32 377.78"
/>
<path stroke="#796f57" vector-effect="non-scaling-stroke" d="
  M 321.83 387.54
  Q 312.52 388.85 308.23 390.24
  A 0.80 0.79 78.6 0 0 307.69 391.07
  L 308.64 399.99
  A 0.44 0.44 0.0 0 0 309.17 400.38
  Q 317.00 398.73 323.28 397.84
  Q 329.56 396.96 337.54 396.38
  A 0.44 0.44 0.0 0 0 337.94 395.86
  L 336.39 387.03
  A 0.80 0.79 85.4 0 0 335.64 386.38
  Q 331.14 386.23 321.83 387.54"
/>
<path stroke="#824c2b" vector-effect="non-scaling-stroke" d="
  M 264.30 472.14
  A 0.42 0.42 0.0 0 0 265.04 472.32
  Q 277.10 457.74 294.81 450.32
  Q 304.88 446.09 315.49 443.48
  Q 318.20 442.82 331.30 440.38
  A 1.15 1.15 0.0 0 0 332.06 439.87
  Q 332.59 439.05 334.06 436.54
  C 338.91 428.31 347.01 425.72 356.06 424.48
  A 1.28 1.27 -80.8 0 0 357.04 423.77
  Q 361.60 414.17 367.14 406.06
  A 0.57 0.57 0.0 0 0 366.78 405.18
  Q 364.50 404.73 361.88 404.66
  Q 341.90 404.12 323.07 406.82
  Q 308.75 408.87 296.96 412.73
  Q 284.82 416.70 276.96 422.84
  C 270.14 428.16 262.13 438.72 261.98 448.04
  Q 261.77 460.35 264.30 472.14"
/>
<path stroke="#693b22" vector-effect="non-scaling-stroke" d="
  M 356.68 578.12
  L 344.40 585.27
  A 1.21 1.21 0.0 0 0 343.84 586.64
  Q 346.86 597.33 351.19 606.20
  A 1.38 1.37 64.7 0 0 352.99 606.85
  L 366.97 600.50"
/>
<path stroke="#824c2b" vector-effect="non-scaling-stroke" d="
  M 366.97 600.50
  C 389.42 588.72 407.61 572.20 420.84 550.88
  C 432.27 532.47 438.08 509.66 434.79 488.11
  C 434.27 484.69 433.08 481.61 432.17 477.79
  C 429.96 468.53 424.82 460.32 418.37 453.13
  Q 411.64 445.62 402.05 440.38
  C 399.17 438.80 395.92 437.93 392.49 436.49
  Q 389.64 435.28 385.07 434.27
  Q 374.29 431.89 363.02 432.49
  C 355.29 432.90 348.71 433.79 343.33 438.24
  A 0.54 0.54 0.0 0 0 343.73 439.20
  Q 347.10 438.87 355.75 439.07
  C 364.66 439.27 375.40 441.58 382.80 446.98
  Q 387.79 450.63 388.65 451.42
  Q 390.99 453.55 395.83 459.66
  Q 399.57 464.40 401.29 468.89
  Q 404.86 478.19 405.68 482.07
  Q 407.38 490.04 406.69 501.72
  C 405.98 513.55 401.19 526.86 394.77 537.52
  Q 388.51 547.90 382.59 554.84
  Q 371.78 567.48 356.68 578.12"
/>
<path stroke="#d6672e" vector-effect="non-scaling-stroke" d="
  M 366.97 600.50
  Q 365.55 598.10 364.37 595.37
  Q 363.43 593.23 362.59 592.03
  C 360.38 588.87 359.77 584.72 358.72 581.79
  Q 358.11 580.10 356.68 578.12"
/>
<path stroke="#766130" vector-effect="non-scaling-stroke" d="
  M 681.78 532.35
  L 675.95 557.74
  A 0.71 0.71 0.0 0 0 676.37 558.55
  C 687.08 562.92 697.12 563.16 708.42 560.75
  C 727.17 556.75 743.53 542.63 753.03 526.31
  A 0.46 0.45 15.4 0 0 752.64 525.63
  L 746.84 525.61"
/>
<path stroke="#8a773f" vector-effect="non-scaling-stroke" d="
  M 746.84 525.61
  L 740.33 524.19
  A 6.65 6.64 -14.3 0 1 736.75 522.07
  L 735.24 520.33
  A 1.34 1.34 0.0 0 1 736.50 518.13
  Q 758.41 522.28 772.96 504.76
  Q 779.22 497.24 781.27 487.06
  C 784.05 473.27 777.93 457.80 769.07 446.89
  C 764.09 440.78 755.09 433.71 746.97 433.16
  Q 722.74 431.50 714.99 453.09
  Q 714.48 454.50 714.85 457.83
  A 1.00 0.99 3.7 0 0 715.62 458.70
  Q 721.43 460.04 726.42 464.52
  A 0.52 0.52 0.0 0 0 727.21 464.40
  Q 732.90 454.78 743.95 452.78
  Q 745.98 452.41 746.78 454.09
  A 1.93 1.83 -26.1 0 1 745.86 456.55
  C 740.52 459.24 734.29 463.66 731.60 469.13
  A 2.38 2.37 -44.9 0 0 731.59 471.19
  Q 734.74 477.86 733.44 484.65
  A 1.57 1.57 0.0 0 0 733.84 486.04
  Q 735.15 487.43 737.25 488.55
  A 0.76 0.75 27.8 0 0 738.26 488.24
  Q 743.84 477.83 755.04 474.00
  Q 756.99 473.33 758.77 473.90
  A 2.34 2.18 19.2 0 1 760.31 476.81
  Q 759.95 477.72 759.27 478.04
  C 753.40 480.74 748.41 483.57 744.98 489.15
  C 742.00 493.98 743.00 500.13 748.77 502.19
  C 753.63 503.93 758.93 501.42 762.79 498.04
  A 1.61 1.57 -34.4 0 1 765.26 498.47
  Q 765.82 499.54 765.10 500.86
  C 760.76 508.78 750.43 510.96 742.85 505.93
  Q 737.76 502.56 737.05 497.49
  Q 736.87 496.20 736.83 496.03
  A 1.12 1.12 0.0 0 0 736.12 495.28
  Q 732.29 493.94 729.63 491.13
  A 0.85 0.84 54.4 0 0 728.63 490.96
  Q 722.32 494.23 715.76 490.20
  C 714.10 489.17 709.61 485.01 711.47 482.84
  A 1.31 1.31 0.0 0 1 713.27 482.66
  C 715.42 484.33 717.48 486.10 719.84 486.55
  C 725.30 487.58 727.86 483.59 727.11 478.60
  C 726.14 472.07 718.47 465.11 711.57 466.11
  C 706.80 466.81 703.64 470.63 703.03 475.28
  C 701.58 486.34 709.18 496.05 718.28 501.21
  A 1.99 1.97 34.2 0 1 718.86 504.18
  Q 717.53 505.81 713.44 504.66
  A 2.17 2.15 30.0 0 0 711.29 505.23
  C 705.08 511.60 694.09 511.68 686.14 508.85
  A 0.36 0.36 0.0 0 0 685.67 509.13
  L 681.78 532.35"
/>
<path stroke="#eab850" vector-effect="non-scaling-stroke" d="
  M 746.84 525.61
  L 741.46 530.92
  A 2.55 2.50 -80.6 0 1 740.83 531.38
  L 735.15 534.38
  A 0.67 0.53 6.3 0 0 735.04 534.45
  Q 732.18 536.82 729.08 537.84
  C 723.25 539.74 718.31 541.81 712.68 542.21
  Q 698.00 543.25 687.38 538.16
  Q 684.25 536.66 681.78 532.35"
/>
<path stroke="#766130" vector-effect="non-scaling-stroke" d="
  M 307.62 510.22
  Q 315.52 503.50 324.93 501.64
  C 339.39 498.78 357.88 499.14 370.88 506.94
  C 372.90 508.15 374.64 511.56 371.65 512.70
  Q 369.85 513.38 367.03 512.49
  Q 352.03 507.76 335.46 509.12
  A 0.65 0.64 -89.4 0 0 334.87 509.71
  C 333.83 522.69 334.32 534.61 335.70 549.84
  C 336.59 559.59 338.76 568.85 340.78 577.17
  A 0.41 0.41 0.0 0 0 341.39 577.42
  L 353.28 569.86"
/>
<path stroke="#8a773f" vector-effect="non-scaling-stroke" d="
  M 353.28 569.86
  C 372.25 556.23 388.02 537.52 395.21 515.22
  C 400.70 498.17 398.71 479.07 388.20 464.49
  C 382.55 456.66 373.69 450.44 364.11 448.94
  C 352.35 447.08 340.71 447.97 327.01 450.09
  C 310.61 452.64 294.95 458.06 281.35 468.34
  C 275.58 472.70 271.18 478.38 267.34 484.46
  C 259.79 496.44 256.50 511.82 256.32 526.01
  Q 256.29 528.13 256.62 539.48
  Q 256.65 540.71 255.16 541.99
  Q 254.65 542.43 253.86 542.12
  Q 253.12 541.82 252.63 541.87
  A 1.39 1.37 16.5 0 0 251.66 542.39
  Q 239.32 557.94 242.91 576.61
  C 245.70 591.14 258.46 600.84 272.93 601.40
  C 289.72 602.04 300.56 591.65 303.36 575.63
  Q 303.60 574.23 304.44 573.63
  A 1.71 1.58 65.7 0 1 306.94 574.69
  Q 308.34 580.01 306.97 585.88
  A 0.52 0.52 0.0 0 0 307.72 586.46
  C 313.93 583.27 317.19 576.08 316.75 569.47
  Q 315.61 552.30 300.71 543.27
  Q 298.96 542.21 298.73 540.00
  Q 297.68 530.26 300.95 521.71
  Q 303.38 515.34 307.62 510.22"
/>
<path stroke="#eab850" vector-effect="non-scaling-stroke" d="
  M 353.28 569.86
  Q 351.43 562.56 350.74 558.24
  Q 349.07 547.73 352.27 537.18
  C 355.06 528.00 361.90 520.30 371.32 517.66
  C 374.96 516.63 378.02 515.47 379.71 512.74
  C 382.61 508.06 377.79 502.80 373.82 500.96
  Q 350.03 489.95 325.19 496.88
  Q 313.12 500.25 307.62 510.22"
/>
<path stroke="#693b22" vector-effect="non-scaling-stroke" d="
  M 356.59 633.54
  Q 353.15 628.10 345.25 614.33
  C 342.31 609.20 340.50 603.51 337.98 597.88
  C 336.07 593.60 335.17 588.82 333.28 583.69
  C 332.29 581.01 332.28 578.17 331.45 575.63
  Q 329.86 570.79 329.23 564.39
  C 328.93 561.35 327.73 558.34 327.37 555.44
  Q 325.35 539.13 325.27 524.26
  Q 325.23 517.02 326.00 510.82
  A 0.45 0.45 0.0 0 0 325.44 510.33
  C 312.35 513.62 307.44 523.08 306.82 535.60
  A 2.61 2.60 -71.4 0 0 307.94 537.87
  Q 318.17 544.89 322.60 556.33
  C 324.32 560.77 324.95 568.09 324.78 572.51
  Q 324.26 586.27 312.41 593.17
  Q 308.67 595.35 305.00 595.75
  A 1.88 1.85 -70.9 0 0 303.83 596.33
  Q 295.63 604.90 288.46 607.70
  A 0.83 0.83 0.0 0 0 287.94 608.59
  C 288.52 613.17 290.30 620.77 293.80 624.05
  Q 299.66 629.55 307.80 631.89
  Q 315.86 634.21 325.99 635.04
  Q 341.85 636.35 356.18 634.42
  A 0.58 0.58 0.0 0 0 356.59 633.54"
/>
<path stroke="#824c2b" vector-effect="non-scaling-stroke" d="
  M 588.19 678.46
  L 590.97 687.63"
/>
<path stroke="#87887f" vector-effect="non-scaling-stroke" d="
  M 590.97 687.63
  Q 593.08 696.48 595.31 705.73
  C 597.84 716.20 601.72 726.69 610.43 733.21
  A 0.59 0.59 0.0 0 0 611.32 732.99
  Q 613.32 728.62 616.32 724.32
  Q 631.94 701.89 652.13 683.13
  Q 658.58 677.14 666.50 671.57
  C 675.44 665.29 689.77 659.60 698.80 668.12
  A 0.33 0.32 22.8 0 0 699.35 667.90
  C 699.61 662.81 699.82 658.85 697.98 654.52
  C 693.07 642.98 681.51 640.22 670.10 643.44
  C 660.38 646.18 651.98 652.02 644.90 658.58
  Q 634.96 667.80 627.66 678.21
  C 626.98 679.19 626.05 679.90 624.90 679.70
  A 1.84 1.61 -84.9 0 1 623.57 677.87
  C 623.76 670.93 632.25 660.47 636.98 655.39"
/>
<path stroke="#824c2b" vector-effect="non-scaling-stroke" d="
  M 636.98 655.39
  Q 638.34 654.48 639.31 652.89
  A 1.44 1.44 0.0 0 0 639.51 651.94
  L 638.58 645.24"
/>
<path stroke="#87887f" vector-effect="non-scaling-stroke" d="
  M 638.58 645.24
  L 637.20 639.35
  A 0.78 0.77 84.4 0 0 636.49 638.76
  Q 631.48 638.46 626.51 639.78
  C 613.06 643.34 601.04 651.46 591.67 661.66
  Q 588.00 665.66 585.42 670.09
  A 1.45 1.45 0.0 0 0 585.33 671.35
  L 588.19 678.46"
/>
<path stroke="#f4b38a" vector-effect="non-scaling-stroke" d="
  M 638.58 645.24
  Q 638.80 646.44 637.99 646.53
  Q 621.33 648.32 608.49 658.02
  Q 595.70 667.68 588.19 678.46"
/>
<path stroke="#f4b38a" vector-effect="non-scaling-stroke" d="
  M 590.97 687.63
  Q 594.48 682.80 598.27 678.53
  Q 610.15 665.15 626.54 658.03
  Q 629.79 656.62 636.98 655.39"
/>
<path stroke="#824c2b" vector-effect="non-scaling-stroke" d="
  M 388.38 716.36
  L 396.43 722.09"
/>
<path stroke="#87887f" vector-effect="non-scaling-stroke" d="
  M 396.43 722.09
  Q 400.25 725.12 404.88 726.82
  A 0.25 0.25 0.0 0 0 405.20 726.50
  C 400.27 712.34 404.94 696.36 416.51 686.96
  A 0.42 0.42 0.0 0 0 416.45 686.27
  L 411.38 683.46"
/>
<path stroke="#824c2b" vector-effect="non-scaling-stroke" d="
  M 411.38 683.46
  L 404.10 679.49"
/>
<path stroke="#87887f" vector-effect="non-scaling-stroke" d="
  M 404.10 679.49
  Q 391.26 671.57 380.50 661.50
  A 1.56 1.55 -24.7 0 0 379.33 661.07
  C 371.11 661.50 363.66 666.99 358.78 673.53
  C 347.92 688.08 341.19 706.88 342.71 725.05
  C 344.00 740.59 357.70 748.88 371.54 739.93
  Q 380.28 734.27 385.28 724.07
  A 0.72 0.71 -56.1 0 0 385.12 723.22
  C 382.52 720.80 374.56 711.19 376.34 707.66
  A 1.84 1.73 36.2 0 1 379.21 707.31
  L 388.38 716.36"
/>
<path stroke="#f4b38a" vector-effect="non-scaling-stroke" d="
  M 404.10 679.49
  Q 389.66 690.64 388.54 708.99
  Q 388.32 712.55 388.38 716.36"
/>
<path stroke="#f4b38a" vector-effect="non-scaling-stroke" d="
  M 411.38 683.46
  C 409.87 684.78 408.02 685.75 406.72 687.07
  Q 395.36 698.59 396.17 715.24
  Q 396.33 718.59 396.43 722.09"
/>
<path stroke="#796f57" vector-effect="non-scaling-stroke" d="
  M 616.48 735.77
  A 0.56 0.56 0.0 0 0 616.77 736.51
  C 620.40 738.01 624.17 738.54 628.44 737.84
  C 638.71 736.17 648.29 731.33 656.51 725.52
  Q 671.66 714.83 683.84 701.10
  Q 689.75 694.44 694.06 685.90
  C 696.80 680.45 697.18 672.74 689.47 671.53
  C 681.19 670.24 671.38 676.05 664.64 681.16
  Q 653.50 689.59 642.56 701.31
  Q 631.16 713.54 623.22 724.45
  Q 619.01 730.24 616.48 735.77"
/>
<path stroke="#8a773f" vector-effect="non-scaling-stroke" d="
  M 482.81 700.99
  Q 453.13 701.90 424.50 689.61
  A 1.74 1.73 40.9 0 0 422.92 689.72
  C 413.25 695.54 408.68 707.61 409.68 718.47
  Q 410.19 724.09 413.35 729.46
  A 3.14 3.13 85.1 0 0 414.94 730.80
  C 437.16 739.22 460.01 732.85 474.69 714.66
  Q 478.74 709.64 483.17 701.57
  A 0.39 0.39 0.0 0 0 482.81 700.99"
/>
<path stroke="#f4b38a" vector-effect="non-scaling-stroke" d="
  M 501.17 253.27
  A 0.59 0.59 0.0 0 1 500.81 254.02
  L 488.14 258.60
  A 0.81 0.81 0.0 0 1 487.11 258.11
  L 482.12 244.33
  A 1.68 1.68 0.0 0 0 480.38 243.22
  C 476.05 243.64 471.05 246.23 466.79 248.04
  Q 464.62 248.97 465.19 251.09
  Q 466.64 256.43 470.40 266.36
  C 473.87 275.55 476.65 284.20 480.60 294.27
  A 2.15 2.15 0.0 0 0 483.44 295.46
  L 496.45 289.99
  A 1.96 1.96 0.0 0 0 497.53 287.52
  L 492.37 273.25
  A 0.96 0.96 0.0 0 1 492.94 272.03
  L 505.96 267.32
  A 0.80 0.79 -19.2 0 1 506.97 267.80
  L 512.02 281.75
  A 1.72 1.72 0.0 0 0 514.22 282.79
  Q 520.37 280.58 526.01 278.27
  Q 528.37 277.31 527.44 274.84
  Q 519.49 253.58 513.44 236.54
  Q 512.59 234.15 510.00 234.73
  Q 505.36 235.79 498.88 237.62
  C 496.53 238.28 496.39 239.64 497.17 241.72
  Q 498.74 245.89 501.17 253.27"
/>
<path stroke="#796f57" vector-effect="non-scaling-stroke" d="
  M 321.7770 335.4076
  A 8.48 8.00 -63.4 0 0 310.8268 339.4079
  A 8.48 8.00 -63.4 0 0 314.1830 350.5724
  A 8.48 8.00 -63.4 0 0 325.1332 346.5721
  A 8.48 8.00 -63.4 0 0 321.7770 335.4076"
/>
<path stroke="#fcdf9e" vector-effect="non-scaling-stroke" d="
  M 518.82 358.03
  C 515.11 361.57 512.82 363.51 510.51 367.46
  Q 502.28 381.47 501.37 397.26
  C 500.63 409.95 501.43 420.77 504.60 430.70
  Q 507.05 438.38 512.78 446.34
  C 517.40 452.76 523.39 455.53 530.59 456.83
  C 544.53 459.34 556.58 448.57 561.58 436.34
  Q 565.69 426.28 566.12 422.92
  Q 567.69 410.46 567.86 407.00
  Q 568.51 393.39 564.90 380.08
  C 561.86 368.86 553.09 353.73 540.21 352.17
  C 532.91 351.28 524.40 352.70 518.82 358.03"
/>
<path stroke="#fcdf9e" vector-effect="non-scaling-stroke" d="
  M 628.25 450.98
  Q 639.86 440.20 643.19 424.13
  Q 647.14 405.08 643.13 385.77
  Q 642.14 380.99 640.25 376.63
  Q 637.37 369.97 636.09 367.92
  Q 632.61 362.36 625.14 357.58
  C 616.08 351.78 602.88 356.92 596.92 364.94
  C 584.20 382.03 583.10 408.84 588.27 428.80
  C 590.61 437.82 594.89 445.84 601.95 451.36
  C 608.09 456.16 614.58 455.64 621.83 453.86
  Q 626.34 452.75 628.25 450.98"
/>
<path stroke="#8a773f" vector-effect="non-scaling-stroke" d="
  M 507.41 470.64
  C 500.61 474.59 499.39 485.59 499.73 492.78
  C 500.22 503.00 503.05 515.52 508.05 524.90
  Q 512.38 533.01 516.68 537.58
  Q 533.65 555.61 560.24 556.20
  Q 564.23 556.28 570.24 555.07
  Q 576.09 553.89 579.92 552.40
  C 605.09 542.58 619.26 517.24 622.39 491.25
  C 623.30 483.67 622.73 473.46 614.28 470.44
  Q 609.60 468.76 604.42 470.41
  C 585.54 476.40 566.29 478.95 546.42 475.76
  Q 534.45 473.84 520.26 469.14
  Q 513.71 466.97 507.41 470.64"
/>
<path stroke="#87887f" vector-effect="non-scaling-stroke" d="
  M 514.13 406.91
  C 513.93 417.87 517.18 439.92 532.24 440.19
  C 547.30 440.47 551.35 418.56 551.55 407.60
  C 551.75 396.64 548.50 374.59 533.44 374.32
  C 518.38 374.04 514.33 395.96 514.13 406.91"
/>
<path stroke="#87887f" vector-effect="non-scaling-stroke" d="
  M 594.50 407.92
  C 594.37 418.92 597.67 439.71 611.71 439.88
  C 625.75 440.04 629.53 419.33 629.66 408.32
  C 629.79 397.31 626.48 376.52 612.45 376.36
  C 598.41 376.20 594.63 396.91 594.50 407.92"
/>
<path stroke="#824c2b" vector-effect="non-scaling-stroke" d="
  M 511.55 514.90
  A 0.84 0.83 69.6 0 0 511.11 515.87
  Q 513.29 524.24 519.01 530.82
  C 522.39 534.70 525.75 538.64 529.71 541.08
  C 537.00 545.56 546.67 549.53 555.26 549.68
  Q 559.74 549.76 566.76 549.30
  A 1.44 1.44 0.0 0 0 568.11 547.93
  C 568.54 538.32 561.35 529.04 554.33 523.02
  Q 546.35 516.18 536.50 513.83
  C 527.57 511.69 519.52 510.87 511.55 514.90"
/>
</g>
<path fill="#f09538" d="
  M 1024.00 0.00
  L 1024.00 1024.00
  L 0.00 1024.00
  L 0.00 0.00
  L 1024.00 0.00
  Z
  M 372.73 654.11
  Q 363.20 656.50 357.04 663.02
  C 355.13 665.03 351.62 668.51 349.60 671.56
  Q 335.69 692.64 333.96 716.26
  C 333.32 725.12 335.84 738.31 342.18 744.54
  C 354.36 756.49 371.62 752.78 382.38 741.39
  Q 387.96 735.49 391.62 729.13
  A 0.48 0.48 0.0 0 1 392.31 728.97
  Q 406.16 738.79 423.12 742.14
  C 442.61 745.98 462.02 739.95 475.99 725.94
  C 483.73 718.18 488.42 710.68 492.81 701.26
  A 1.52 1.49 9.5 0 1 494.04 700.40
  C 523.05 697.85 550.81 687.00 574.50 670.32
  A 0.71 0.70 -32.2 0 1 575.52 670.55
  Q 578.12 675.08 579.56 679.43
  C 581.79 686.20 583.13 689.67 584.42 695.68
  C 587.31 709.16 591.33 727.53 602.24 737.17
  Q 608.45 742.66 613.87 744.17
  Q 627.64 748.02 641.65 742.17
  C 658.69 735.04 674.26 722.52 686.58 709.33
  C 700.42 694.50 713.97 672.23 706.02 651.22
  Q 701.52 639.32 688.71 635.00
  C 678.88 631.68 666.27 634.60 657.64 639.37
  Q 651.96 642.51 647.89 645.54
  A 0.38 0.38 0.0 0 1 647.29 645.31
  Q 645.33 634.78 642.20 625.38
  A 1.07 1.04 56.5 0 1 642.39 624.38
  C 654.35 610.06 662.48 593.92 669.49 576.51
  Q 671.15 572.39 672.34 567.81
  A 0.98 0.97 18.4 0 1 673.65 567.16
  C 684.77 571.80 698.69 572.13 709.79 569.68
  C 734.40 564.24 754.15 545.75 764.50 522.88
  A 2.32 2.27 -2.9 0 1 765.47 521.83
  C 778.73 514.42 788.28 501.06 790.27 485.96
  Q 791.57 476.09 788.33 464.83
  Q 783.53 448.18 770.58 435.75
  Q 764.28 429.70 757.26 426.95
  C 738.82 419.70 717.80 426.80 709.08 444.82
  Q 706.02 451.14 706.44 457.56
  A 2.49 2.49 0.0 0 1 705.18 459.89
  C 689.56 468.70 692.76 488.48 703.84 499.47
  A 0.51 0.51 0.0 0 1 703.67 500.31
  Q 695.64 503.59 687.69 500.08
  A 1.54 1.52 -75.6 0 1 686.79 498.54
  Q 687.40 491.78 687.60 488.63
  Q 688.28 477.61 687.75 456.76
  Q 687.03 428.77 679.85 400.50
  Q 677.89 392.79 675.53 386.71
  C 670.96 374.99 668.63 368.98 663.22 359.82
  A 1.03 1.03 0.0 0 1 663.58 358.42
  C 684.26 346.02 699.34 326.30 705.98 303.29
  Q 707.47 298.11 707.92 291.74
  Q 708.44 284.51 708.06 279.98
  Q 706.12 256.30 688.57 243.20
  C 674.21 232.47 652.89 230.55 635.47 233.01
  C 617.44 235.56 601.78 241.75 585.67 249.71
  A 1.39 1.38 -33.4 0 1 584.00 249.37
  Q 560.82 222.29 525.31 217.44
  C 486.22 212.10 446.00 224.84 414.63 248.15
  Q 393.04 264.20 380.18 287.67
  C 370.69 305.00 366.08 323.96 366.23 343.93
  Q 366.28 351.18 366.51 355.24
  Q 366.86 361.41 370.65 376.59
  Q 372.33 383.31 376.13 390.72
  A 1.47 1.47 0.0 0 1 375.99 392.29
  L 373.19 395.90
  A 1.14 1.11 -69.7 0 1 372.29 396.33
  L 346.90 395.50
  A 0.51 0.50 -2.0 0 1 346.42 395.06
  Q 345.75 389.57 345.33 384.92
  C 344.61 376.88 341.97 377.88 335.41 377.51
  A 0.60 0.59 88.2 0 1 334.86 376.98
  L 333.49 363.96
  A 1.41 1.40 68.5 0 1 334.04 362.68
  C 343.35 355.55 347.38 343.81 344.45 332.68
  C 341.28 320.63 333.09 313.16 320.48 313.54
  Q 306.69 313.96 297.51 323.70
  C 288.26 333.52 287.00 348.23 295.63 358.91
  C 298.64 362.63 302.25 365.10 306.88 366.49
  A 0.31 0.30 5.9 0 1 307.10 366.75
  L 308.56 380.54
  A 0.56 0.55 -9.5 0 1 308.13 381.13
  C 304.33 382.06 298.02 382.81 298.72 388.29
  Q 299.63 395.48 300.12 401.82
  A 0.65 0.64 79.4 0 1 299.67 402.49
  Q 293.33 404.41 285.04 407.80
  Q 277.62 410.83 268.73 418.19
  C 259.98 425.44 252.46 438.75 252.69 450.01
  C 252.83 456.61 253.61 464.62 255.30 471.96
  Q 255.53 472.98 257.28 483.25
  A 2.52 2.43 -38.1 0 1 257.07 484.76
  Q 252.61 494.08 250.98 500.45
  Q 247.18 515.26 247.69 533.67
  A 1.48 1.47 64.9 0 1 247.32 534.70
  Q 240.17 542.81 237.52 548.99
  Q 232.61 560.49 233.60 573.53
  C 234.35 583.27 239.66 594.36 247.32 600.38
  C 253.15 604.98 261.61 609.31 269.03 609.74
  Q 274.46 610.05 278.10 609.75
  A 1.18 1.18 0.0 0 1 279.37 610.84
  Q 280.08 619.50 284.72 626.65
  C 292.89 639.23 311.95 643.11 325.49 644.17
  Q 344.81 645.67 362.14 642.34
  A 1.33 1.32 63.9 0 1 363.38 642.77
  L 372.86 653.68
  A 0.26 0.26 0.0 0 1 372.73 654.11
  Z
  M 246.12 755.90
  Q 239.92 732.22 225.29 712.48
  C 214.40 697.78 198.98 687.83 180.49 686.03
  Q 171.44 685.15 162.37 688.60
  Q 159.49 689.69 158.20 691.68
  C 155.70 695.57 158.82 699.99 163.32 698.59
  Q 178.77 693.75 193.77 700.54
  C 223.00 713.76 236.84 750.98 242.06 780.61
  C 242.45 782.83 243.18 783.99 245.40 784.43
  Q 249.99 785.32 251.75 782.34
  A 2.25 2.21 62.3 0 0 252.06 781.32
  C 253.13 765.18 257.31 747.01 268.59 734.66
  Q 273.61 729.17 280.92 727.28
  C 289.18 725.13 296.48 729.35 302.33 735.14
  C 305.60 738.37 307.45 741.90 310.34 746.22
  A 2.81 2.79 4.2 0 0 310.81 746.76
  Q 312.66 748.38 314.51 746.97
  C 316.01 745.82 315.72 743.71 315.25 742.25
  C 310.34 727.17 299.32 714.69 281.81 716.43
  C 271.22 717.48 261.82 724.63 256.11 733.60
  C 252.04 739.99 248.44 748.21 246.80 755.88
  A 0.35 0.35 0.0 0 1 246.12 755.90
  Z
  M 347.53 787.80
  C 347.53 791.68 363.33 793.16 365.87 793.44
  Q 383.21 795.38 401.50 796.36
  Q 444.37 798.65 486.56 798.64
  Q 528.76 798.64 571.62 796.34
  Q 589.92 795.36 607.26 793.41
  C 609.79 793.13 625.59 791.65 625.59 787.76
  C 625.59 783.88 609.79 782.40 607.26 782.12
  Q 589.91 780.18 571.62 779.21
  Q 528.76 776.91 486.56 776.92
  Q 444.36 776.92 401.50 779.22
  Q 383.21 780.20 365.87 782.15
  C 363.33 782.43 347.53 783.91 347.53 787.80
  Z"
/>
<path fill="#15201f" d="
  M 372.73 654.11
  A 0.26 0.26 0.0 0 0 372.86 653.68
  L 363.38 642.77
  A 1.33 1.32 63.9 0 0 362.14 642.34
  Q 344.81 645.67 325.49 644.17
  C 311.95 643.11 292.89 639.23 284.72 626.65
  Q 280.08 619.50 279.37 610.84
  A 1.18 1.18 0.0 0 0 278.10 609.75
  Q 274.46 610.05 269.03 609.74
  C 261.61 609.31 253.15 604.98 247.32 600.38
  C 239.66 594.36 234.35 583.27 233.60 573.53
  Q 232.61 560.49 237.52 548.99
  Q 240.17 542.81 247.32 534.70
  A 1.48 1.47 64.9 0 0 247.69 533.67
  Q 247.18 515.26 250.98 500.45
  Q 252.61 494.08 257.07 484.76
  A 2.52 2.43 -38.1 0 0 257.28 483.25
  Q 255.53 472.98 255.30 471.96
  C 253.61 464.62 252.83 456.61 252.69 450.01
  C 252.46 438.75 259.98 425.44 268.73 418.19
  Q 277.62 410.83 285.04 407.80
  Q 293.33 404.41 299.67 402.49
  A 0.65 0.64 79.4 0 0 300.12 401.82
  Q 299.63 395.48 298.72 388.29
  C 298.02 382.81 304.33 382.06 308.13 381.13
  A 0.56 0.55 -9.5 0 0 308.56 380.54
  L 307.10 366.75
  A 0.31 0.30 5.9 0 0 306.88 366.49
  C 302.25 365.10 298.64 362.63 295.63 358.91
  C 287.00 348.23 288.26 333.52 297.51 323.70
  Q 306.69 313.96 320.48 313.54
  C 333.09 313.16 341.28 320.63 344.45 332.68
  C 347.38 343.81 343.35 355.55 334.04 362.68
  A 1.41 1.40 68.5 0 0 333.49 363.96
  L 334.86 376.98
  A 0.60 0.59 88.2 0 0 335.41 377.51
  C 341.97 377.88 344.61 376.88 345.33 384.92
  Q 345.75 389.57 346.42 395.06
  A 0.51 0.50 -2.0 0 0 346.90 395.50
  L 372.29 396.33
  A 1.14 1.11 -69.7 0 0 373.19 395.90
  L 375.99 392.29
  A 1.47 1.47 0.0 0 0 376.13 390.72
  Q 372.33 383.31 370.65 376.59
  Q 366.86 361.41 366.51 355.24
  Q 366.28 351.18 366.23 343.93
  C 366.08 323.96 370.69 305.00 380.18 287.67
  Q 393.04 264.20 414.63 248.15
  C 446.00 224.84 486.22 212.10 525.31 217.44
  Q 560.82 222.29 584.00 249.37
  A 1.39 1.38 -33.4 0 0 585.67 249.71
  C 601.78 241.75 617.44 235.56 635.47 233.01
  C 652.89 230.55 674.21 232.47 688.57 243.20
  Q 706.12 256.30 708.06 279.98
  Q 708.44 284.51 707.92 291.74
  Q 707.47 298.11 705.98 303.29
  C 699.34 326.30 684.26 346.02 663.58 358.42
  A 1.03 1.03 0.0 0 0 663.22 359.82
  C 668.63 368.98 670.96 374.99 675.53 386.71
  Q 677.89 392.79 679.85 400.50
  Q 687.03 428.77 687.75 456.76
  Q 688.28 477.61 687.60 488.63
  Q 687.40 491.78 686.79 498.54
  A 1.54 1.52 -75.6 0 0 687.69 500.08
  Q 695.64 503.59 703.67 500.31
  A 0.51 0.51 0.0 0 0 703.84 499.47
  C 692.76 488.48 689.56 468.70 705.18 459.89
  A 2.49 2.49 0.0 0 0 706.44 457.56
  Q 706.02 451.14 709.08 444.82
  C 717.80 426.80 738.82 419.70 757.26 426.95
  Q 764.28 429.70 770.58 435.75
  Q 783.53 448.18 788.33 464.83
  Q 791.57 476.09 790.27 485.96
  C 788.28 501.06 778.73 514.42 765.47 521.83
  A 2.32 2.27 -2.9 0 0 764.50 522.88
  C 754.15 545.75 734.40 564.24 709.79 569.68
  C 698.69 572.13 684.77 571.80 673.65 567.16
  A 0.98 0.97 18.4 0 0 672.34 567.81
  Q 671.15 572.39 669.49 576.51
  C 662.48 593.92 654.35 610.06 642.39 624.38
  A 1.07 1.04 56.5 0 0 642.20 625.38
  Q 645.33 634.78 647.29 645.31
  A 0.38 0.38 0.0 0 0 647.89 645.54
  Q 651.96 642.51 657.64 639.37
  C 666.27 634.60 678.88 631.68 688.71 635.00
  Q 701.52 639.32 706.02 651.22
  C 713.97 672.23 700.42 694.50 686.58 709.33
  C 674.26 722.52 658.69 735.04 641.65 742.17
  Q 627.64 748.02 613.87 744.17
  Q 608.45 742.66 602.24 737.17
  C 591.33 727.53 587.31 709.16 584.42 695.68
  C 583.13 689.67 581.79 686.20 579.56 679.43
  Q 578.12 675.08 575.52 670.55
  A 0.71 0.70 -32.2 0 0 574.50 670.32
  C 550.81 687.00 523.05 697.85 494.04 700.40
  A 1.52 1.49 9.5 0 0 492.81 701.26
  C 488.42 710.68 483.73 718.18 475.99 725.94
  C 462.02 739.95 442.61 745.98 423.12 742.14
  Q 406.16 738.79 392.31 728.97
  A 0.48 0.48 0.0 0 0 391.62 729.13
  Q 387.96 735.49 382.38 741.39
  C 371.62 752.78 354.36 756.49 342.18 744.54
  C 335.84 738.31 333.32 725.12 333.96 716.26
  Q 335.69 692.64 349.60 671.56
  C 351.62 668.51 355.13 665.03 357.04 663.02
  Q 363.20 656.50 372.73 654.11
  Z
  M 442.90 334.17
  Q 448.72 330.67 459.20 324.95
  Q 490.87 307.64 512.28 295.02
  C 532.35 283.18 555.48 267.48 575.70 255.17
  A 0.61 0.60 -35.8 0 0 575.85 254.26
  Q 560.10 235.67 536.55 229.00
  C 507.80 220.84 475.20 226.33 448.20 238.75
  A 3.79 3.79 0.0 0 0 446.73 239.95
  C 435.32 255.49 430.98 273.60 432.21 292.02
  Q 433.63 313.42 441.89 333.83
  A 0.70 0.70 0.0 0 0 442.90 334.17
  Z
  M 537.39 307.01
  C 549.40 305.23 561.82 304.85 572.99 305.54
  Q 592.16 306.74 611.26 314.07
  C 630.32 321.38 645.84 334.35 657.37 351.02
  A 1.32 1.31 -36.7 0 0 659.28 351.29
  L 660.76 350.09
  Q 686.89 332.60 696.51 302.90
  Q 700.22 291.43 699.17 280.14
  Q 698.33 271.14 694.32 263.08
  C 691.92 258.25 685.96 251.89 682.12 249.46
  Q 677.17 246.33 666.71 243.02
  Q 659.72 240.81 650.16 241.05
  C 636.70 241.39 625.89 243.11 614.03 247.11
  Q 604.70 250.26 602.71 251.20
  Q 596.35 254.22 584.69 260.21
  Q 579.42 262.91 567.41 270.55
  Q 552.50 280.04 542.64 286.51
  C 511.91 306.67 485.68 320.61 451.58 339.31
  Q 451.15 339.55 451.10 339.92
  Q 451.06 340.29 451.47 340.35
  C 461.76 341.87 473.60 339.30 483.44 336.09
  Q 486.51 335.09 492.04 332.71
  C 506.70 326.40 520.37 318.13 533.02 309.01
  Q 534.19 308.16 537.39 307.01
  Z
  M 431.79 247.45
  Q 430.88 247.72 430.02 248.26
  C 411.42 259.85 395.18 276.85 385.69 296.58
  Q 373.05 322.87 375.57 353.47
  Q 376.82 368.65 382.27 383.11
  A 0.40 0.40 0.0 0 0 382.96 383.21
  Q 397.58 364.75 417.22 350.48
  Q 426.77 343.54 433.49 339.48
  A 0.83 0.82 -27.0 0 0 433.83 338.47
  Q 429.34 327.45 426.22 313.99
  Q 422.34 297.24 423.64 277.64
  Q 424.66 262.23 432.18 247.92
  A 0.33 0.33 0.0 0 0 431.79 247.45
  Z
  M 443.63 347.67
  L 440.40 346.79
  A 1.34 1.32 -52.3 0 0 439.39 346.93
  C 408.39 365.30 384.58 391.46 367.49 422.95
  A 0.60 0.59 14.2 0 0 368.02 423.83
  C 390.61 423.73 411.67 432.02 426.55 448.88
  Q 430.19 453.01 433.87 459.53
  Q 438.40 467.56 439.61 471.26
  Q 449.10 500.23 440.03 529.56
  Q 434.58 547.16 424.75 561.25
  Q 404.99 589.56 373.34 606.91
  L 356.86 614.41
  A 0.73 0.72 63.6 0 0 356.53 615.41
  Q 372.10 644.07 396.84 663.11
  C 403.42 668.18 411.36 673.06 417.87 676.39
  Q 447.39 691.46 479.61 691.82
  C 511.86 692.18 543.21 681.15 569.88 662.43
  A 0.80 0.79 -47.6 0 0 569.82 661.09
  L 563.14 657.23
  A 1.16 1.15 -55.3 0 1 562.83 655.49
  C 564.77 653.18 569.98 653.95 572.30 655.18
  Q 578.45 658.46 581.64 664.44
  A 0.38 0.38 0.0 0 0 582.28 664.50
  L 585.22 660.67
  C 597.31 645.79 615.43 633.21 634.94 632.86
  A 0.47 0.47 0.0 0 0 635.38 632.26
  C 630.72 616.65 619.29 602.94 602.75 599.79
  Q 589.67 597.29 576.88 600.87
  Q 567.89 603.40 562.74 605.78
  Q 545.70 613.67 530.32 625.32
  Q 521.92 631.68 511.93 639.95
  C 509.34 642.09 504.82 640.76 506.48 636.52
  Q 507.23 634.60 508.60 633.24
  C 524.47 617.50 543.17 604.50 564.15 595.77
  Q 569.48 593.55 576.28 592.06
  C 586.34 589.84 594.49 589.13 603.01 590.77
  Q 626.06 595.22 637.29 615.58
  A 0.56 0.56 0.0 0 0 638.24 615.63
  Q 656.08 590.13 665.31 560.10
  Q 673.00 535.07 676.38 508.89
  C 677.44 500.70 678.24 489.88 678.51 484.04
  C 680.21 446.61 676.35 413.11 662.91 379.82
  Q 658.11 367.92 649.46 355.77
  Q 638.65 340.57 623.32 330.94
  C 615.81 326.08 610.32 323.63 601.99 320.77
  C 580.19 313.30 555.61 312.41 532.91 316.52
  A 3.61 3.59 -70.3 0 0 531.16 317.35
  C 513.33 332.77 491.90 345.22 468.12 348.65
  Q 456.40 350.35 443.63 347.67
  Z
  M 326.32 377.78
  L 324.47 360.29
  A 2.33 2.32 -17.7 0 1 325.65 358.02
  Q 331.89 354.50 334.72 348.26
  C 338.35 340.30 336.59 329.64 328.97 324.66
  C 322.85 320.66 312.32 322.83 306.84 327.12
  Q 300.81 331.84 299.49 338.25
  Q 297.00 350.33 306.88 357.19
  C 308.25 358.15 310.94 359.04 313.49 359.84
  A 2.48 2.47 5.8 0 1 315.21 361.94
  L 317.00 378.89
  A 0.37 0.37 0.0 0 0 317.41 379.22
  L 325.88 378.32
  A 0.49 0.48 -6.3 0 0 326.32 377.78
  Z
  M 321.83 387.54
  Q 312.52 388.85 308.23 390.24
  A 0.80 0.79 78.6 0 0 307.69 391.07
  L 308.64 399.99
  A 0.44 0.44 0.0 0 0 309.17 400.38
  Q 317.00 398.73 323.28 397.84
  Q 329.56 396.96 337.54 396.38
  A 0.44 0.44 0.0 0 0 337.94 395.86
  L 336.39 387.03
  A 0.80 0.79 85.4 0 0 335.64 386.38
  Q 331.14 386.23 321.83 387.54
  Z
  M 264.30 472.14
  A 0.42 0.42 0.0 0 0 265.04 472.32
  Q 277.10 457.74 294.81 450.32
  Q 304.88 446.09 315.49 443.48
  Q 318.20 442.82 331.30 440.38
  A 1.15 1.15 0.0 0 0 332.06 439.87
  Q 332.59 439.05 334.06 436.54
  C 338.91 428.31 347.01 425.72 356.06 424.48
  A 1.28 1.27 -80.8 0 0 357.04 423.77
  Q 361.60 414.17 367.14 406.06
  A 0.57 0.57 0.0 0 0 366.78 405.18
  Q 364.50 404.73 361.88 404.66
  Q 341.90 404.12 323.07 406.82
  Q 308.75 408.87 296.96 412.73
  Q 284.82 416.70 276.96 422.84
  C 270.14 428.16 262.13 438.72 261.98 448.04
  Q 261.77 460.35 264.30 472.14
  Z
  M 356.68 578.12
  L 344.40 585.27
  A 1.21 1.21 0.0 0 0 343.84 586.64
  Q 346.86 597.33 351.19 606.20
  A 1.38 1.37 64.7 0 0 352.99 606.85
  L 366.97 600.50
  C 389.42 588.72 407.61 572.20 420.84 550.88
  C 432.27 532.47 438.08 509.66 434.79 488.11
  C 434.27 484.69 433.08 481.61 432.17 477.79
  C 429.96 468.53 424.82 460.32 418.37 453.13
  Q 411.64 445.62 402.05 440.38
  C 399.17 438.80 395.92 437.93 392.49 436.49
  Q 389.64 435.28 385.07 434.27
  Q 374.29 431.89 363.02 432.49
  C 355.29 432.90 348.71 433.79 343.33 438.24
  A 0.54 0.54 0.0 0 0 343.73 439.20
  Q 347.10 438.87 355.75 439.07
  C 364.66 439.27 375.40 441.58 382.80 446.98
  Q 387.79 450.63 388.65 451.42
  Q 390.99 453.55 395.83 459.66
  Q 399.57 464.40 401.29 468.89
  Q 404.86 478.19 405.68 482.07
  Q 407.38 490.04 406.69 501.72
  C 405.98 513.55 401.19 526.86 394.77 537.52
  Q 388.51 547.90 382.59 554.84
  Q 371.78 567.48 356.68 578.12
  Z
  M 681.78 532.35
  L 675.95 557.74
  A 0.71 0.71 0.0 0 0 676.37 558.55
  C 687.08 562.92 697.12 563.16 708.42 560.75
  C 727.17 556.75 743.53 542.63 753.03 526.31
  A 0.46 0.45 15.4 0 0 752.64 525.63
  L 746.84 525.61
  L 740.33 524.19
  A 6.65 6.64 -14.3 0 1 736.75 522.07
  L 735.24 520.33
  A 1.34 1.34 0.0 0 1 736.50 518.13
  Q 758.41 522.28 772.96 504.76
  Q 779.22 497.24 781.27 487.06
  C 784.05 473.27 777.93 457.80 769.07 446.89
  C 764.09 440.78 755.09 433.71 746.97 433.16
  Q 722.74 431.50 714.99 453.09
  Q 714.48 454.50 714.85 457.83
  A 1.00 0.99 3.7 0 0 715.62 458.70
  Q 721.43 460.04 726.42 464.52
  A 0.52 0.52 0.0 0 0 727.21 464.40
  Q 732.90 454.78 743.95 452.78
  Q 745.98 452.41 746.78 454.09
  A 1.93 1.83 -26.1 0 1 745.86 456.55
  C 740.52 459.24 734.29 463.66 731.60 469.13
  A 2.38 2.37 -44.9 0 0 731.59 471.19
  Q 734.74 477.86 733.44 484.65
  A 1.57 1.57 0.0 0 0 733.84 486.04
  Q 735.15 487.43 737.25 488.55
  A 0.76 0.75 27.8 0 0 738.26 488.24
  Q 743.84 477.83 755.04 474.00
  Q 756.99 473.33 758.77 473.90
  A 2.34 2.18 19.2 0 1 760.31 476.81
  Q 759.95 477.72 759.27 478.04
  C 753.40 480.74 748.41 483.57 744.98 489.15
  C 742.00 493.98 743.00 500.13 748.77 502.19
  C 753.63 503.93 758.93 501.42 762.79 498.04
  A 1.61 1.57 -34.4 0 1 765.26 498.47
  Q 765.82 499.54 765.10 500.86
  C 760.76 508.78 750.43 510.96 742.85 505.93
  Q 737.76 502.56 737.05 497.49
  Q 736.87 496.20 736.83 496.03
  A 1.12 1.12 0.0 0 0 736.12 495.28
  Q 732.29 493.94 729.63 491.13
  A 0.85 0.84 54.4 0 0 728.63 490.96
  Q 722.32 494.23 715.76 490.20
  C 714.10 489.17 709.61 485.01 711.47 482.84
  A 1.31 1.31 0.0 0 1 713.27 482.66
  C 715.42 484.33 717.48 486.10 719.84 486.55
  C 725.30 487.58 727.86 483.59 727.11 478.60
  C 726.14 472.07 718.47 465.11 711.57 466.11
  C 706.80 466.81 703.64 470.63 703.03 475.28
  C 701.58 486.34 709.18 496.05 718.28 501.21
  A 1.99 1.97 34.2 0 1 718.86 504.18
  Q 717.53 505.81 713.44 504.66
  A 2.17 2.15 30.0 0 0 711.29 505.23
  C 705.08 511.60 694.09 511.68 686.14 508.85
  A 0.36 0.36 0.0 0 0 685.67 509.13
  L 681.78 532.35
  Z
  M 307.62 510.22
  Q 315.52 503.50 324.93 501.64
  C 339.39 498.78 357.88 499.14 370.88 506.94
  C 372.90 508.15 374.64 511.56 371.65 512.70
  Q 369.85 513.38 367.03 512.49
  Q 352.03 507.76 335.46 509.12
  A 0.65 0.64 -89.4 0 0 334.87 509.71
  C 333.83 522.69 334.32 534.61 335.70 549.84
  C 336.59 559.59 338.76 568.85 340.78 577.17
  A 0.41 0.41 0.0 0 0 341.39 577.42
  L 353.28 569.86
  C 372.25 556.23 388.02 537.52 395.21 515.22
  C 400.70 498.17 398.71 479.07 388.20 464.49
  C 382.55 456.66 373.69 450.44 364.11 448.94
  C 352.35 447.08 340.71 447.97 327.01 450.09
  C 310.61 452.64 294.95 458.06 281.35 468.34
  C 275.58 472.70 271.18 478.38 267.34 484.46
  C 259.79 496.44 256.50 511.82 256.32 526.01
  Q 256.29 528.13 256.62 539.48
  Q 256.65 540.71 255.16 541.99
  Q 254.65 542.43 253.86 542.12
  Q 253.12 541.82 252.63 541.87
  A 1.39 1.37 16.5 0 0 251.66 542.39
  Q 239.32 557.94 242.91 576.61
  C 245.70 591.14 258.46 600.84 272.93 601.40
  C 289.72 602.04 300.56 591.65 303.36 575.63
  Q 303.60 574.23 304.44 573.63
  A 1.71 1.58 65.7 0 1 306.94 574.69
  Q 308.34 580.01 306.97 585.88
  A 0.52 0.52 0.0 0 0 307.72 586.46
  C 313.93 583.27 317.19 576.08 316.75 569.47
  Q 315.61 552.30 300.71 543.27
  Q 298.96 542.21 298.73 540.00
  Q 297.68 530.26 300.95 521.71
  Q 303.38 515.34 307.62 510.22
  Z
  M 356.59 633.54
  Q 353.15 628.10 345.25 614.33
  C 342.31 609.20 340.50 603.51 337.98 597.88
  C 336.07 593.60 335.17 588.82 333.28 583.69
  C 332.29 581.01 332.28 578.17 331.45 575.63
  Q 329.86 570.79 329.23 564.39
  C 328.93 561.35 327.73 558.34 327.37 555.44
  Q 325.35 539.13 325.27 524.26
  Q 325.23 517.02 326.00 510.82
  A 0.45 0.45 0.0 0 0 325.44 510.33
  C 312.35 513.62 307.44 523.08 306.82 535.60
  A 2.61 2.60 -71.4 0 0 307.94 537.87
  Q 318.17 544.89 322.60 556.33
  C 324.32 560.77 324.95 568.09 324.78 572.51
  Q 324.26 586.27 312.41 593.17
  Q 308.67 595.35 305.00 595.75
  A 1.88 1.85 -70.9 0 0 303.83 596.33
  Q 295.63 604.90 288.46 607.70
  A 0.83 0.83 0.0 0 0 287.94 608.59
  C 288.52 613.17 290.30 620.77 293.80 624.05
  Q 299.66 629.55 307.80 631.89
  Q 315.86 634.21 325.99 635.04
  Q 341.85 636.35 356.18 634.42
  A 0.58 0.58 0.0 0 0 356.59 633.54
  Z
  M 588.19 678.46
  L 590.97 687.63
  Q 593.08 696.48 595.31 705.73
  C 597.84 716.20 601.72 726.69 610.43 733.21
  A 0.59 0.59 0.0 0 0 611.32 732.99
  Q 613.32 728.62 616.32 724.32
  Q 631.94 701.89 652.13 683.13
  Q 658.58 677.14 666.50 671.57
  C 675.44 665.29 689.77 659.60 698.80 668.12
  A 0.33 0.32 22.8 0 0 699.35 667.90
  C 699.61 662.81 699.82 658.85 697.98 654.52
  C 693.07 642.98 681.51 640.22 670.10 643.44
  C 660.38 646.18 651.98 652.02 644.90 658.58
  Q 634.96 667.80 627.66 678.21
  C 626.98 679.19 626.05 679.90 624.90 679.70
  A 1.84 1.61 -84.9 0 1 623.57 677.87
  C 623.76 670.93 632.25 660.47 636.98 655.39
  Q 638.34 654.48 639.31 652.89
  A 1.44 1.44 0.0 0 0 639.51 651.94
  L 638.58 645.24
  L 637.20 639.35
  A 0.78 0.77 84.4 0 0 636.49 638.76
  Q 631.48 638.46 626.51 639.78
  C 613.06 643.34 601.04 651.46 591.67 661.66
  Q 588.00 665.66 585.42 670.09
  A 1.45 1.45 0.0 0 0 585.33 671.35
  L 588.19 678.46
  Z
  M 388.38 716.36
  L 396.43 722.09
  Q 400.25 725.12 404.88 726.82
  A 0.25 0.25 0.0 0 0 405.20 726.50
  C 400.27 712.34 404.94 696.36 416.51 686.96
  A 0.42 0.42 0.0 0 0 416.45 686.27
  L 411.38 683.46
  L 404.10 679.49
  Q 391.26 671.57 380.50 661.50
  A 1.56 1.55 -24.7 0 0 379.33 661.07
  C 371.11 661.50 363.66 666.99 358.78 673.53
  C 347.92 688.08 341.19 706.88 342.71 725.05
  C 344.00 740.59 357.70 748.88 371.54 739.93
  Q 380.28 734.27 385.28 724.07
  A 0.72 0.71 -56.1 0 0 385.12 723.22
  C 382.52 720.80 374.56 711.19 376.34 707.66
  A 1.84 1.73 36.2 0 1 379.21 707.31
  L 388.38 716.36
  Z
  M 616.48 735.77
  A 0.56 0.56 0.0 0 0 616.77 736.51
  C 620.40 738.01 624.17 738.54 628.44 737.84
  C 638.71 736.17 648.29 731.33 656.51 725.52
  Q 671.66 714.83 683.84 701.10
  Q 689.75 694.44 694.06 685.90
  C 696.80 680.45 697.18 672.74 689.47 671.53
  C 681.19 670.24 671.38 676.05 664.64 681.16
  Q 653.50 689.59 642.56 701.31
  Q 631.16 713.54 623.22 724.45
  Q 619.01 730.24 616.48 735.77
  Z
  M 482.81 700.99
  Q 453.13 701.90 424.50 689.61
  A 1.74 1.73 40.9 0 0 422.92 689.72
  C 413.25 695.54 408.68 707.61 409.68 718.47
  Q 410.19 724.09 413.35 729.46
  A 3.14 3.13 85.1 0 0 414.94 730.80
  C 437.16 739.22 460.01 732.85 474.69 714.66
  Q 478.74 709.64 483.17 701.57
  A 0.39 0.39 0.0 0 0 482.81 700.99
  Z"
/>
<path fill="#f9efde" d="
  M 442.90 334.17
  A 0.70 0.70 0.0 0 1 441.89 333.83
  Q 433.63 313.42 432.21 292.02
  C 430.98 273.60 435.32 255.49 446.73 239.95
  A 3.79 3.79 0.0 0 1 448.20 238.75
  C 475.20 226.33 507.80 220.84 536.55 229.00
  Q 560.10 235.67 575.85 254.26
  A 0.61 0.60 -35.8 0 1 575.70 255.17
  C 555.48 267.48 532.35 283.18 512.28 295.02
  Q 490.87 307.64 459.20 324.95
  Q 448.72 330.67 442.90 334.17
  Z
  M 501.17 253.27
  A 0.59 0.59 0.0 0 1 500.81 254.02
  L 488.14 258.60
  A 0.81 0.81 0.0 0 1 487.11 258.11
  L 482.12 244.33
  A 1.68 1.68 0.0 0 0 480.38 243.22
  C 476.05 243.64 471.05 246.23 466.79 248.04
  Q 464.62 248.97 465.19 251.09
  Q 466.64 256.43 470.40 266.36
  C 473.87 275.55 476.65 284.20 480.60 294.27
  A 2.15 2.15 0.0 0 0 483.44 295.46
  L 496.45 289.99
  A 1.96 1.96 0.0 0 0 497.53 287.52
  L 492.37 273.25
  A 0.96 0.96 0.0 0 1 492.94 272.03
  L 505.96 267.32
  A 0.80 0.79 -19.2 0 1 506.97 267.80
  L 512.02 281.75
  A 1.72 1.72 0.0 0 0 514.22 282.79
  Q 520.37 280.58 526.01 278.27
  Q 528.37 277.31 527.44 274.84
  Q 519.49 253.58 513.44 236.54
  Q 512.59 234.15 510.00 234.73
  Q 505.36 235.79 498.88 237.62
  C 496.53 238.28 496.39 239.64 497.17 241.72
  Q 498.74 245.89 501.17 253.27
  Z"
/>
<path fill="#ef7736" d="
  M 501.17 253.27
  Q 498.74 245.89 497.17 241.72
  C 496.39 239.64 496.53 238.28 498.88 237.62
  Q 505.36 235.79 510.00 234.73
  Q 512.59 234.15 513.44 236.54
  Q 519.49 253.58 527.44 274.84
  Q 528.37 277.31 526.01 278.27
  Q 520.37 280.58 514.22 282.79
  A 1.72 1.72 0.0 0 1 512.02 281.75
  L 506.97 267.80
  A 0.80 0.79 -19.2 0 0 505.96 267.32
  L 492.94 272.03
  A 0.96 0.96 0.0 0 0 492.37 273.25
  L 497.53 287.52
  A 1.96 1.96 0.0 0 1 496.45 289.99
  L 483.44 295.46
  A 2.15 2.15 0.0 0 1 480.60 294.27
  C 476.65 284.20 473.87 275.55 470.40 266.36
  Q 466.64 256.43 465.19 251.09
  Q 464.62 248.97 466.79 248.04
  C 471.05 246.23 476.05 243.64 480.38 243.22
  A 1.68 1.68 0.0 0 1 482.12 244.33
  L 487.11 258.11
  A 0.81 0.81 0.0 0 0 488.14 258.60
  L 500.81 254.02
  A 0.59 0.59 0.0 0 0 501.17 253.27
  Z"
/>
<path fill="#ef7736" d="
  M 660.76 350.09
  Q 660.29 349.83 660.39 349.19
  A 0.80 0.80 0.0 0 1 660.74 348.66
  Q 666.53 344.72 670.11 339.16
  A 9.11 9.00 -6.0 0 1 671.47 337.50
  Q 675.11 334.02 675.61 333.11
  Q 679.25 326.54 681.69 322.54
  C 686.79 314.16 688.37 305.76 689.71 297.02
  Q 690.89 289.34 689.65 284.49
  C 687.65 276.66 684.67 271.58 679.85 265.43
  Q 677.97 263.04 674.48 261.47
  C 667.54 258.35 663.36 255.87 656.24 254.90
  Q 653.87 254.58 648.23 254.35
  Q 635.43 253.85 623.22 257.28
  Q 612.91 260.18 605.80 263.31
  Q 597.24 267.09 582.31 275.58
  Q 577.88 278.10 572.29 282.04
  Q 568.23 284.90 557.17 291.92
  Q 555.50 292.98 552.63 295.36
  Q 550.77 296.89 548.00 298.65
  Q 542.33 302.24 537.39 307.01
  Q 534.19 308.16 533.02 309.01
  C 520.37 318.13 506.70 326.40 492.04 332.71
  Q 486.51 335.09 483.44 336.09
  C 473.60 339.30 461.76 341.87 451.47 340.35
  Q 451.06 340.29 451.10 339.92
  Q 451.15 339.55 451.58 339.31
  C 485.68 320.61 511.91 306.67 542.64 286.51
  Q 552.50 280.04 567.41 270.55
  Q 579.42 262.91 584.69 260.21
  Q 596.35 254.22 602.71 251.20
  Q 604.70 250.26 614.03 247.11
  C 625.89 243.11 636.70 241.39 650.16 241.05
  Q 659.72 240.81 666.71 243.02
  Q 677.17 246.33 682.12 249.46
  C 685.96 251.89 691.92 258.25 694.32 263.08
  Q 698.33 271.14 699.17 280.14
  Q 700.22 291.43 696.51 302.90
  Q 686.89 332.60 660.76 350.09
  Z"
/>
<path fill="#ef7736" d="
  M 431.79 247.45
  A 0.33 0.33 0.0 0 1 432.18 247.92
  Q 424.66 262.23 423.64 277.64
  Q 422.34 297.24 426.22 313.99
  Q 429.34 327.45 433.83 338.47
  A 0.83 0.82 -27.0 0 1 433.49 339.48
  Q 426.77 343.54 417.22 350.48
  Q 397.58 364.75 382.96 383.21
  A 0.40 0.40 0.0 0 1 382.27 383.11
  Q 376.82 368.65 375.57 353.47
  Q 373.05 322.87 385.69 296.58
  C 395.18 276.85 411.42 259.85 430.02 248.26
  Q 430.88 247.72 431.79 247.45
  Z"
/>
<path fill="#bc5625" d="
  M 660.76 350.09
  L 659.28 351.29
  A 1.32 1.31 -36.7 0 1 657.37 351.02
  C 645.84 334.35 630.32 321.38 611.26 314.07
  Q 592.16 306.74 572.99 305.54
  C 561.82 304.85 549.40 305.23 537.39 307.01
  Q 542.33 302.24 548.00 298.65
  Q 550.77 296.89 552.63 295.36
  Q 555.50 292.98 557.17 291.92
  Q 568.23 284.90 572.29 282.04
  Q 577.88 278.10 582.31 275.58
  Q 597.24 267.09 605.80 263.31
  Q 612.91 260.18 623.22 257.28
  Q 635.43 253.85 648.23 254.35
  Q 653.87 254.58 656.24 254.90
  C 663.36 255.87 667.54 258.35 674.48 261.47
  Q 677.97 263.04 679.85 265.43
  C 684.67 271.58 687.65 276.66 689.65 284.49
  Q 690.89 289.34 689.71 297.02
  C 688.37 305.76 686.79 314.16 681.69 322.54
  Q 679.25 326.54 675.61 333.11
  Q 675.11 334.02 671.47 337.50
  A 9.11 9.00 -6.0 0 0 670.11 339.16
  Q 666.53 344.72 660.74 348.66
  A 0.80 0.80 0.0 0 0 660.39 349.19
  Q 660.29 349.83 660.76 350.09
  Z"
/>
<path fill="#d6a141" d="
  M 623.32 330.94
  Q 620.29 330.62 617.30 329.92
  Q 612.35 328.77 611.33 328.64
  C 607.63 328.18 604.05 327.31 600.12 326.74
  Q 572.87 322.77 545.30 329.93
  Q 533.17 333.08 526.42 336.99
  Q 519.87 340.78 516.65 341.97
  Q 513.08 343.28 508.01 345.91
  Q 501.96 349.05 491.35 352.10
  C 487.29 353.27 483.47 353.57 479.31 354.49
  C 468.62 356.86 454.79 354.21 445.75 350.00
  Q 445.10 349.70 443.63 347.67
  Q 456.40 350.35 468.12 348.65
  C 491.90 345.22 513.33 332.77 531.16 317.35
  A 3.61 3.59 -70.3 0 1 532.91 316.52
  C 555.61 312.41 580.19 313.30 601.99 320.77
  C 610.32 323.63 615.81 326.08 623.32 330.94
  Z"
/>
<path fill="#ddbd8e" d="
  M 326.32 377.78
  A 0.49 0.48 -6.3 0 1 325.88 378.32
  L 317.41 379.22
  A 0.37 0.37 0.0 0 1 317.00 378.89
  L 315.21 361.94
  A 2.48 2.47 5.8 0 0 313.49 359.84
  C 310.94 359.04 308.25 358.15 306.88 357.19
  Q 297.00 350.33 299.49 338.25
  Q 300.81 331.84 306.84 327.12
  C 312.32 322.83 322.85 320.66 328.97 324.66
  C 336.59 329.64 338.35 340.30 334.72 348.26
  Q 331.89 354.50 325.65 358.02
  A 2.33 2.32 -17.7 0 0 324.47 360.29
  L 326.32 377.78
  Z
  M 321.7770 335.4076
  A 8.48 8.00 -63.4 0 0 310.8268 339.4079
  A 8.48 8.00 -63.4 0 0 314.1830 350.5724
  A 8.48 8.00 -63.4 0 0 325.1332 346.5721
  A 8.48 8.00 -63.4 0 0 321.7770 335.4076
  Z"
/>
<path fill="#fece5e" d="
  M 623.32 330.94
  Q 638.65 340.57 649.46 355.77
  Q 658.11 367.92 662.91 379.82
  C 676.35 413.11 680.21 446.61 678.51 484.04
  C 678.24 489.88 677.44 500.70 676.38 508.89
  Q 673.00 535.07 665.31 560.10
  Q 656.08 590.13 638.24 615.63
  A 0.56 0.56 0.0 0 1 637.29 615.58
  Q 626.06 595.22 603.01 590.77
  C 594.49 589.13 586.34 589.84 576.28 592.06
  Q 569.48 593.55 564.15 595.77
  C 543.17 604.50 524.47 617.50 508.60 633.24
  Q 507.23 634.60 506.48 636.52
  C 504.82 640.76 509.34 642.09 511.93 639.95
  Q 521.92 631.68 530.32 625.32
  Q 545.70 613.67 562.74 605.78
  Q 567.89 603.40 576.88 600.87
  Q 589.67 597.29 602.75 599.79
  C 619.29 602.94 630.72 616.65 635.38 632.26
  A 0.47 0.47 0.0 0 1 634.94 632.86
  C 615.43 633.21 597.31 645.79 585.22 660.67
  Q 582.06 656.01 578.23 652.78
  Q 573.31 648.62 566.47 650.15
  Q 562.57 651.03 560.32 652.34
  Q 550.52 658.05 544.40 661.96
  C 539.64 665.00 535.31 666.90 529.92 669.94
  C 526.75 671.73 522.97 672.84 519.76 674.35
  Q 516.41 675.93 511.94 677.04
  Q 502.19 679.46 495.26 680.44
  Q 487.42 681.55 473.28 680.41
  C 453.67 678.82 432.54 669.31 416.69 657.90
  Q 412.07 654.58 409.81 652.55
  C 406.56 649.61 400.98 645.56 397.77 641.67
  Q 394.81 638.06 392.69 636.02
  C 388.54 631.98 384.84 626.23 380.59 620.65
  Q 377.13 616.12 373.34 606.91
  Q 404.99 589.56 424.75 561.25
  Q 434.58 547.16 440.03 529.56
  Q 449.10 500.23 439.61 471.26
  Q 438.40 467.56 433.87 459.53
  Q 430.19 453.01 426.55 448.88
  C 411.67 432.02 390.61 423.73 368.02 423.83
  A 0.60 0.59 14.2 0 1 367.49 422.95
  C 384.58 391.46 408.39 365.30 439.39 346.93
  A 1.34 1.32 -52.3 0 1 440.40 346.79
  L 443.63 347.67
  Q 445.10 349.70 445.75 350.00
  C 454.79 354.21 468.62 356.86 479.31 354.49
  C 483.47 353.57 487.29 353.27 491.35 352.10
  Q 501.96 349.05 508.01 345.91
  Q 513.08 343.28 516.65 341.97
  Q 519.87 340.78 526.42 336.99
  Q 533.17 333.08 545.30 329.93
  Q 572.87 322.77 600.12 326.74
  C 604.05 327.31 607.63 328.18 611.33 328.64
  Q 612.35 328.77 617.30 329.92
  Q 620.29 330.62 623.32 330.94
  Z
  M 518.82 358.03
  C 515.11 361.57 512.82 363.51 510.51 367.46
  Q 502.28 381.47 501.37 397.26
  C 500.63 409.95 501.43 420.77 504.60 430.70
  Q 507.05 438.38 512.78 446.34
  C 517.40 452.76 523.39 455.53 530.59 456.83
  C 544.53 459.34 556.58 448.57 561.58 436.34
  Q 565.69 426.28 566.12 422.92
  Q 567.69 410.46 567.86 407.00
  Q 568.51 393.39 564.90 380.08
  C 561.86 368.86 553.09 353.73 540.21 352.17
  C 532.91 351.28 524.40 352.70 518.82 358.03
  Z
  M 628.25 450.98
  Q 639.86 440.20 643.19 424.13
  Q 647.14 405.08 643.13 385.77
  Q 642.14 380.99 640.25 376.63
  Q 637.37 369.97 636.09 367.92
  Q 632.61 362.36 625.14 357.58
  C 616.08 351.78 602.88 356.92 596.92 364.94
  C 584.20 382.03 583.10 408.84 588.27 428.80
  C 590.61 437.82 594.89 445.84 601.95 451.36
  C 608.09 456.16 614.58 455.64 621.83 453.86
  Q 626.34 452.75 628.25 450.98
  Z
  M 507.41 470.64
  C 500.61 474.59 499.39 485.59 499.73 492.78
  C 500.22 503.00 503.05 515.52 508.05 524.90
  Q 512.38 533.01 516.68 537.58
  Q 533.65 555.61 560.24 556.20
  Q 564.23 556.28 570.24 555.07
  Q 576.09 553.89 579.92 552.40
  C 605.09 542.58 619.26 517.24 622.39 491.25
  C 623.30 483.67 622.73 473.46 614.28 470.44
  Q 609.60 468.76 604.42 470.41
  C 585.54 476.40 566.29 478.95 546.42 475.76
  Q 534.45 473.84 520.26 469.14
  Q 513.71 466.97 507.41 470.64
  Z"
/>
<ellipse fill="#15201f" cx="0.00" cy="0.00" transform="translate(317.98,342.99) rotate(-63.4)" rx="8.48" ry="8.00"/>
<path fill="#f9efde" d="
  M 510.51 367.46
  C 512.82 363.51 515.11 361.57 518.82 358.03
  C 524.40 352.70 532.91 351.28 540.21 352.17
  C 553.09 353.73 561.86 368.86 564.90 380.08
  Q 568.51 393.39 567.86 407.00
  Q 567.69 410.46 566.12 422.92
  Q 565.69 426.28 561.58 436.34
  C 556.58 448.57 544.53 459.34 530.59 456.83
  C 523.39 455.53 517.40 452.76 512.78 446.34
  Q 507.05 438.38 504.60 430.70
  C 501.43 420.77 500.63 409.95 501.37 397.26
  Q 502.28 381.47 510.51 367.46
  Z
  M 514.13 406.91
  C 513.93 417.87 517.18 439.92 532.24 440.19
  C 547.30 440.47 551.35 418.56 551.55 407.60
  C 551.75 396.64 548.50 374.59 533.44 374.32
  C 518.38 374.04 514.33 395.96 514.13 406.91
  Z"
/>
<path fill="#f9efde" d="
  M 628.25 450.98
  Q 626.34 452.75 621.83 453.86
  C 614.58 455.64 608.09 456.16 601.95 451.36
  C 594.89 445.84 590.61 437.82 588.27 428.80
  C 583.10 408.84 584.20 382.03 596.92 364.94
  C 602.88 356.92 616.08 351.78 625.14 357.58
  Q 632.61 362.36 636.09 367.92
  Q 637.37 369.97 640.25 376.63
  Q 642.14 380.99 643.13 385.77
  Q 647.14 405.08 643.19 424.13
  Q 639.86 440.20 628.25 450.98
  Z
  M 594.50 407.92
  C 594.37 418.92 597.67 439.71 611.71 439.88
  C 625.75 440.04 629.53 419.33 629.66 408.32
  C 629.79 397.31 626.48 376.52 612.45 376.36
  C 598.41 376.20 594.63 396.91 594.50 407.92
  Z"
/>
<path fill="#15201f" d="
  M 533.44 374.32
  C 548.50 374.59 551.75 396.64 551.55 407.60
  C 551.35 418.56 547.30 440.47 532.24 440.19
  C 517.18 439.92 513.93 417.87 514.13 406.91
  C 514.33 395.96 518.38 374.04 533.44 374.32
  Z"
/>
<path fill="#15201f" d="
  M 612.45 376.36
  C 626.48 376.52 629.79 397.31 629.66 408.32
  C 629.53 419.33 625.75 440.04 611.71 439.88
  C 597.67 439.71 594.37 418.92 594.50 407.92
  C 594.63 396.91 598.41 376.20 612.45 376.36
  Z"
/>
<path fill="#ddbd8e" d="
  M 323.28 397.84
  Q 317.00 398.73 309.17 400.38
  A 0.44 0.44 0.0 0 1 308.64 399.99
  L 307.69 391.07
  A 0.80 0.79 78.6 0 1 308.23 390.24
  Q 312.52 388.85 321.83 387.54
  Q 331.14 386.23 335.64 386.38
  A 0.80 0.79 85.4 0 1 336.39 387.03
  L 337.94 395.86
  A 0.44 0.44 0.0 0 1 337.54 396.38
  Q 329.56 396.96 323.28 397.84
  Z"
/>
<path fill="#ef7736" d="
  M 264.30 472.14
  Q 261.77 460.35 261.98 448.04
  C 262.13 438.72 270.14 428.16 276.96 422.84
  Q 284.82 416.70 296.96 412.73
  Q 308.75 408.87 323.07 406.82
  Q 341.90 404.12 361.88 404.66
  Q 364.50 404.73 366.78 405.18
  A 0.57 0.57 0.0 0 1 367.14 406.06
  Q 361.60 414.17 357.04 423.77
  A 1.28 1.27 -80.8 0 1 356.06 424.48
  C 347.01 425.72 338.91 428.31 334.06 436.54
  Q 332.59 439.05 332.06 439.87
  A 1.15 1.15 0.0 0 1 331.30 440.38
  Q 318.20 442.82 315.49 443.48
  Q 304.88 446.09 294.81 450.32
  Q 277.10 457.74 265.04 472.32
  A 0.42 0.42 0.0 0 1 264.30 472.14
  Z"
/>
<path fill="#ef7736" d="
  M 366.97 600.50
  Q 365.55 598.10 364.37 595.37
  Q 363.43 593.23 362.59 592.03
  C 360.38 588.87 359.77 584.72 358.72 581.79
  Q 358.11 580.10 356.68 578.12
  Q 371.78 567.48 382.59 554.84
  Q 388.51 547.90 394.77 537.52
  C 401.19 526.86 405.98 513.55 406.69 501.72
  Q 407.38 490.04 405.68 482.07
  Q 404.86 478.19 401.29 468.89
  Q 399.57 464.40 395.83 459.66
  Q 390.99 453.55 388.65 451.42
  Q 387.79 450.63 382.80 446.98
  C 375.40 441.58 364.66 439.27 355.75 439.07
  Q 347.10 438.87 343.73 439.20
  A 0.54 0.54 0.0 0 1 343.33 438.24
  C 348.71 433.79 355.29 432.90 363.02 432.49
  Q 374.29 431.89 385.07 434.27
  Q 389.64 435.28 392.49 436.49
  C 395.92 437.93 399.17 438.80 402.05 440.38
  Q 411.64 445.62 418.37 453.13
  C 424.82 460.32 429.96 468.53 432.17 477.79
  C 433.08 481.61 434.27 484.69 434.79 488.11
  C 438.08 509.66 432.27 532.47 420.84 550.88
  C 407.61 572.20 389.42 588.72 366.97 600.50
  Z"
/>
<path fill="#fece5e" d="
  M 746.84 525.61
  L 741.46 530.92
  A 2.55 2.50 -80.6 0 1 740.83 531.38
  L 735.15 534.38
  A 0.67 0.53 6.3 0 0 735.04 534.45
  Q 732.18 536.82 729.08 537.84
  C 723.25 539.74 718.31 541.81 712.68 542.21
  Q 698.00 543.25 687.38 538.16
  Q 684.25 536.66 681.78 532.35
  L 685.67 509.13
  A 0.36 0.36 0.0 0 1 686.14 508.85
  C 694.09 511.68 705.08 511.60 711.29 505.23
  A 2.17 2.15 30.0 0 1 713.44 504.66
  Q 717.53 505.81 718.86 504.18
  A 1.99 1.97 34.2 0 0 718.28 501.21
  C 709.18 496.05 701.58 486.34 703.03 475.28
  C 703.64 470.63 706.80 466.81 711.57 466.11
  C 718.47 465.11 726.14 472.07 727.11 478.60
  C 727.86 483.59 725.30 487.58 719.84 486.55
  C 717.48 486.10 715.42 484.33 713.27 482.66
  A 1.31 1.31 0.0 0 0 711.47 482.84
  C 709.61 485.01 714.10 489.17 715.76 490.20
  Q 722.32 494.23 728.63 490.96
  A 0.85 0.84 54.4 0 1 729.63 491.13
  Q 732.29 493.94 736.12 495.28
  A 1.12 1.12 0.0 0 1 736.83 496.03
  Q 736.87 496.20 737.05 497.49
  Q 737.76 502.56 742.85 505.93
  C 750.43 510.96 760.76 508.78 765.10 500.86
  Q 765.82 499.54 765.26 498.47
  A 1.61 1.57 -34.4 0 0 762.79 498.04
  C 758.93 501.42 753.63 503.93 748.77 502.19
  C 743.00 500.13 742.00 493.98 744.98 489.15
  C 748.41 483.57 753.40 480.74 759.27 478.04
  Q 759.95 477.72 760.31 476.81
  A 2.34 2.18 19.2 0 0 758.77 473.90
  Q 756.99 473.33 755.04 474.00
  Q 743.84 477.83 738.26 488.24
  A 0.76 0.75 27.8 0 1 737.25 488.55
  Q 735.15 487.43 733.84 486.04
  A 1.57 1.57 0.0 0 1 733.44 484.65
  Q 734.74 477.86 731.59 471.19
  A 2.38 2.37 -44.9 0 1 731.60 469.13
  C 734.29 463.66 740.52 459.24 745.86 456.55
  A 1.93 1.83 -26.1 0 0 746.78 454.09
  Q 745.98 452.41 743.95 452.78
  Q 732.90 454.78 727.21 464.40
  A 0.52 0.52 0.0 0 1 726.42 464.52
  Q 721.43 460.04 715.62 458.70
  A 1.00 0.99 3.7 0 1 714.85 457.83
  Q 714.48 454.50 714.99 453.09
  Q 722.74 431.50 746.97 433.16
  C 755.09 433.71 764.09 440.78 769.07 446.89
  C 777.93 457.80 784.05 473.27 781.27 487.06
  Q 779.22 497.24 772.96 504.76
  Q 758.41 522.28 736.50 518.13
  A 1.34 1.34 0.0 0 0 735.24 520.33
  L 736.75 522.07
  A 6.65 6.64 -14.3 0 0 740.33 524.19
  L 746.84 525.61
  Z"
/>
<path fill="#fece5e" d="
  M 353.28 569.86
  Q 351.43 562.56 350.74 558.24
  Q 349.07 547.73 352.27 537.18
  C 355.06 528.00 361.90 520.30 371.32 517.66
  C 374.96 516.63 378.02 515.47 379.71 512.74
  C 382.61 508.06 377.79 502.80 373.82 500.96
  Q 350.03 489.95 325.19 496.88
  Q 313.12 500.25 307.62 510.22
  Q 303.38 515.34 300.95 521.71
  Q 297.68 530.26 298.73 540.00
  Q 298.96 542.21 300.71 543.27
  Q 315.61 552.30 316.75 569.47
  C 317.19 576.08 313.93 583.27 307.72 586.46
  A 0.52 0.52 0.0 0 1 306.97 585.88
  Q 308.34 580.01 306.94 574.69
  A 1.71 1.58 65.7 0 0 304.44 573.63
  Q 303.60 574.23 303.36 575.63
  C 300.56 591.65 289.72 602.04 272.93 601.40
  C 258.46 600.84 245.70 591.14 242.91 576.61
  Q 239.32 557.94 251.66 542.39
  A 1.39 1.37 16.5 0 1 252.63 541.87
  Q 253.12 541.82 253.86 542.12
  Q 254.65 542.43 255.16 541.99
  Q 256.65 540.71 256.62 539.48
  Q 256.29 528.13 256.32 526.01
  C 256.50 511.82 259.79 496.44 267.34 484.46
  C 271.18 478.38 275.58 472.70 281.35 468.34
  C 294.95 458.06 310.61 452.64 327.01 450.09
  C 340.71 447.97 352.35 447.08 364.11 448.94
  C 373.69 450.44 382.55 456.66 388.20 464.49
  C 398.71 479.07 400.70 498.17 395.21 515.22
  C 388.02 537.52 372.25 556.23 353.28 569.86
  Z"
/>
<path fill="#15201f" d="
  M 507.41 470.64
  Q 513.71 466.97 520.26 469.14
  Q 534.45 473.84 546.42 475.76
  C 566.29 478.95 585.54 476.40 604.42 470.41
  Q 609.60 468.76 614.28 470.44
  C 622.73 473.46 623.30 483.67 622.39 491.25
  C 619.26 517.24 605.09 542.58 579.92 552.40
  Q 576.09 553.89 570.24 555.07
  Q 564.23 556.28 560.24 556.20
  Q 533.65 555.61 516.68 537.58
  Q 512.38 533.01 508.05 524.90
  C 503.05 515.52 500.22 503.00 499.73 492.78
  C 499.39 485.59 500.61 474.59 507.41 470.64
  Z
  M 511.55 514.90
  A 0.84 0.83 69.6 0 0 511.11 515.87
  Q 513.29 524.24 519.01 530.82
  C 522.39 534.70 525.75 538.64 529.71 541.08
  C 537.00 545.56 546.67 549.53 555.26 549.68
  Q 559.74 549.76 566.76 549.30
  A 1.44 1.44 0.0 0 0 568.11 547.93
  C 568.54 538.32 561.35 529.04 554.33 523.02
  Q 546.35 516.18 536.50 513.83
  C 527.57 511.69 519.52 510.87 511.55 514.90
  Z"
/>
<path fill="#d6a141" d="
  M 353.28 569.86
  L 341.39 577.42
  A 0.41 0.41 0.0 0 1 340.78 577.17
  C 338.76 568.85 336.59 559.59 335.70 549.84
  C 334.32 534.61 333.83 522.69 334.87 509.71
  A 0.65 0.64 -89.4 0 1 335.46 509.12
  Q 352.03 507.76 367.03 512.49
  Q 369.85 513.38 371.65 512.70
  C 374.64 511.56 372.90 508.15 370.88 506.94
  C 357.88 499.14 339.39 498.78 324.93 501.64
  Q 315.52 503.50 307.62 510.22
  Q 313.12 500.25 325.19 496.88
  Q 350.03 489.95 373.82 500.96
  C 377.79 502.80 382.61 508.06 379.71 512.74
  C 378.02 515.47 374.96 516.63 371.32 517.66
  C 361.90 520.30 355.06 528.00 352.27 537.18
  Q 349.07 547.73 350.74 558.24
  Q 351.43 562.56 353.28 569.86
  Z"
/>
<path fill="#bc5625" d="
  M 356.59 633.54
  A 0.58 0.58 0.0 0 1 356.18 634.42
  Q 341.85 636.35 325.99 635.04
  Q 315.86 634.21 307.80 631.89
  Q 299.66 629.55 293.80 624.05
  C 290.30 620.77 288.52 613.17 287.94 608.59
  A 0.83 0.83 0.0 0 1 288.46 607.70
  Q 295.63 604.90 303.83 596.33
  A 1.88 1.85 -70.9 0 1 305.00 595.75
  Q 308.67 595.35 312.41 593.17
  Q 324.26 586.27 324.78 572.51
  C 324.95 568.09 324.32 560.77 322.60 556.33
  Q 318.17 544.89 307.94 537.87
  A 2.61 2.60 -71.4 0 1 306.82 535.60
  C 307.44 523.08 312.35 513.62 325.44 510.33
  A 0.45 0.45 0.0 0 1 326.00 510.82
  Q 325.23 517.02 325.27 524.26
  Q 325.35 539.13 327.37 555.44
  C 327.73 558.34 328.93 561.35 329.23 564.39
  Q 329.86 570.79 331.45 575.63
  C 332.28 578.17 332.29 581.01 333.28 583.69
  C 335.17 588.82 336.07 593.60 337.98 597.88
  C 340.50 603.51 342.31 609.20 345.25 614.33
  Q 353.15 628.10 356.59 633.54
  Z"
/>
<path fill="#ef7736" d="
  M 511.55 514.90
  C 519.52 510.87 527.57 511.69 536.50 513.83
  Q 546.35 516.18 554.33 523.02
  C 561.35 529.04 568.54 538.32 568.11 547.93
  A 1.44 1.44 0.0 0 1 566.76 549.30
  Q 559.74 549.76 555.26 549.68
  C 546.67 549.53 537.00 545.56 529.71 541.08
  C 525.75 538.64 522.39 534.70 519.01 530.82
  Q 513.29 524.24 511.11 515.87
  A 0.84 0.83 69.6 0 1 511.55 514.90
  Z"
/>
<path fill="#d6a141" d="
  M 681.78 532.35
  Q 684.25 536.66 687.38 538.16
  Q 698.00 543.25 712.68 542.21
  C 718.31 541.81 723.25 539.74 729.08 537.84
  Q 732.18 536.82 735.04 534.45
  A 0.67 0.53 6.3 0 1 735.15 534.38
  L 740.83 531.38
  A 2.55 2.50 -80.6 0 0 741.46 530.92
  L 746.84 525.61
  L 752.64 525.63
  A 0.46 0.45 15.4 0 1 753.03 526.31
  C 743.53 542.63 727.17 556.75 708.42 560.75
  C 697.12 563.16 687.08 562.92 676.37 558.55
  A 0.71 0.71 0.0 0 1 675.95 557.74
  L 681.78 532.35
  Z"
/>
<path fill="#bc5625" d="
  M 356.68 578.12
  Q 358.11 580.10 358.72 581.79
  C 359.77 584.72 360.38 588.87 362.59 592.03
  Q 363.43 593.23 364.37 595.37
  Q 365.55 598.10 366.97 600.50
  L 352.99 606.85
  A 1.38 1.37 64.7 0 1 351.19 606.20
  Q 346.86 597.33 343.84 586.64
  A 1.21 1.21 0.0 0 1 344.40 585.27
  L 356.68 578.12
  Z"
/>
<path fill="#d6a141" d="
  M 373.34 606.91
  Q 377.13 616.12 380.59 620.65
  C 384.84 626.23 388.54 631.98 392.69 636.02
  Q 394.81 638.06 397.77 641.67
  C 400.98 645.56 406.56 649.61 409.81 652.55
  Q 412.07 654.58 416.69 657.90
  C 432.54 669.31 453.67 678.82 473.28 680.41
  Q 487.42 681.55 495.26 680.44
  Q 502.19 679.46 511.94 677.04
  Q 516.41 675.93 519.76 674.35
  C 522.97 672.84 526.75 671.73 529.92 669.94
  C 535.31 666.90 539.64 665.00 544.40 661.96
  Q 550.52 658.05 560.32 652.34
  Q 562.57 651.03 566.47 650.15
  Q 573.31 648.62 578.23 652.78
  Q 582.06 656.01 585.22 660.67
  L 582.28 664.50
  A 0.38 0.38 0.0 0 1 581.64 664.44
  Q 578.45 658.46 572.30 655.18
  C 569.98 653.95 564.77 653.18 562.83 655.49
  A 1.16 1.15 -55.3 0 0 563.14 657.23
  L 569.82 661.09
  A 0.80 0.79 -47.6 0 1 569.88 662.43
  C 543.21 681.15 511.86 692.18 479.61 691.82
  Q 447.39 691.46 417.87 676.39
  C 411.36 673.06 403.42 668.18 396.84 663.11
  Q 372.10 644.07 356.53 615.41
  A 0.73 0.72 63.6 0 1 356.86 614.41
  L 373.34 606.91
  Z"
/>
<path fill="#f9efde" d="
  M 638.58 645.24
  Q 638.80 646.44 637.99 646.53
  Q 621.33 648.32 608.49 658.02
  Q 595.70 667.68 588.19 678.46
  L 585.33 671.35
  A 1.45 1.45 0.0 0 1 585.42 670.09
  Q 588.00 665.66 591.67 661.66
  C 601.04 651.46 613.06 643.34 626.51 639.78
  Q 631.48 638.46 636.49 638.76
  A 0.78 0.77 84.4 0 1 637.20 639.35
  L 638.58 645.24
  Z"
/>
<path fill="#f9efde" d="
  M 590.97 687.63
  Q 594.48 682.80 598.27 678.53
  Q 610.15 665.15 626.54 658.03
  Q 629.79 656.62 636.98 655.39
  C 632.25 660.47 623.76 670.93 623.57 677.87
  A 1.84 1.61 -84.9 0 0 624.90 679.70
  C 626.05 679.90 626.98 679.19 627.66 678.21
  Q 634.96 667.80 644.90 658.58
  C 651.98 652.02 660.38 646.18 670.10 643.44
  C 681.51 640.22 693.07 642.98 697.98 654.52
  C 699.82 658.85 699.61 662.81 699.35 667.90
  A 0.33 0.32 22.8 0 1 698.80 668.12
  C 689.77 659.60 675.44 665.29 666.50 671.57
  Q 658.58 677.14 652.13 683.13
  Q 631.94 701.89 616.32 724.32
  Q 613.32 728.62 611.32 732.99
  A 0.59 0.59 0.0 0 1 610.43 733.21
  C 601.72 726.69 597.84 716.20 595.31 705.73
  Q 593.08 696.48 590.97 687.63
  Z"
/>
<path fill="#ef7736" d="
  M 636.98 655.39
  Q 629.79 656.62 626.54 658.03
  Q 610.15 665.15 598.27 678.53
  Q 594.48 682.80 590.97 687.63
  L 588.19 678.46
  Q 595.70 667.68 608.49 658.02
  Q 621.33 648.32 637.99 646.53
  Q 638.80 646.44 638.58 645.24
  L 639.51 651.94
  A 1.44 1.44 0.0 0 1 639.31 652.89
  Q 638.34 654.48 636.98 655.39
  Z"
/>
<path fill="#f9efde" d="
  M 404.10 679.49
  Q 389.66 690.64 388.54 708.99
  Q 388.32 712.55 388.38 716.36
  L 379.21 707.31
  A 1.84 1.73 36.2 0 0 376.34 707.66
  C 374.56 711.19 382.52 720.80 385.12 723.22
  A 0.72 0.71 -56.1 0 1 385.28 724.07
  Q 380.28 734.27 371.54 739.93
  C 357.70 748.88 344.00 740.59 342.71 725.05
  C 341.19 706.88 347.92 688.08 358.78 673.53
  C 363.66 666.99 371.11 661.50 379.33 661.07
  A 1.56 1.55 -24.7 0 1 380.50 661.50
  Q 391.26 671.57 404.10 679.49
  Z"
/>
<path fill="#ddbd8e" d="
  M 616.48 735.77
  Q 619.01 730.24 623.22 724.45
  Q 631.16 713.54 642.56 701.31
  Q 653.50 689.59 664.64 681.16
  C 671.38 676.05 681.19 670.24 689.47 671.53
  C 697.18 672.74 696.80 680.45 694.06 685.90
  Q 689.75 694.44 683.84 701.10
  Q 671.66 714.83 656.51 725.52
  C 648.29 731.33 638.71 736.17 628.44 737.84
  C 624.17 738.54 620.40 738.01 616.77 736.51
  A 0.56 0.56 0.0 0 1 616.48 735.77
  Z"
/>
<path fill="#ef7736" d="
  M 411.38 683.46
  C 409.87 684.78 408.02 685.75 406.72 687.07
  Q 395.36 698.59 396.17 715.24
  Q 396.33 718.59 396.43 722.09
  L 388.38 716.36
  Q 388.32 712.55 388.54 708.99
  Q 389.66 690.64 404.10 679.49
  L 411.38 683.46
  Z"
/>
<path fill="#f9efde" d="
  M 396.43 722.09
  Q 396.33 718.59 396.17 715.24
  Q 395.36 698.59 406.72 687.07
  C 408.02 685.75 409.87 684.78 411.38 683.46
  L 416.45 686.27
  A 0.42 0.42 0.0 0 1 416.51 686.96
  C 404.94 696.36 400.27 712.34 405.20 726.50
  A 0.25 0.25 0.0 0 1 404.88 726.82
  Q 400.25 725.12 396.43 722.09
  Z"
/>
<path fill="#f9efde" d="
  M 246.12 755.90
  A 0.35 0.35 0.0 0 0 246.80 755.88
  C 248.44 748.21 252.04 739.99 256.11 733.60
  C 261.82 724.63 271.22 717.48 281.81 716.43
  C 299.32 714.69 310.34 727.17 315.25 742.25
  C 315.72 743.71 316.01 745.82 314.51 746.97
  Q 312.66 748.38 310.81 746.76
  A 2.81 2.79 4.2 0 1 310.34 746.22
  C 307.45 741.90 305.60 738.37 302.33 735.14
  C 296.48 729.35 289.18 725.13 280.92 727.28
  Q 273.61 729.17 268.59 734.66
  C 257.31 747.01 253.13 765.18 252.06 781.32
  A 2.25 2.21 62.3 0 1 251.75 782.34
  Q 249.99 785.32 245.40 784.43
  C 243.18 783.99 242.45 782.83 242.06 780.61
  C 236.84 750.98 223.00 713.76 193.77 700.54
  Q 178.77 693.75 163.32 698.59
  C 158.82 699.99 155.70 695.57 158.20 691.68
  Q 159.49 689.69 162.37 688.60
  Q 171.44 685.15 180.49 686.03
  C 198.98 687.83 214.40 697.78 225.29 712.48
  Q 239.92 732.22 246.12 755.90
  Z"
/>
<path fill="#fece5e" d="
  M 482.81 700.99
  A 0.39 0.39 0.0 0 1 483.17 701.57
  Q 478.74 709.64 474.69 714.66
  C 460.01 732.85 437.16 739.22 414.94 730.80
  A 3.14 3.13 85.1 0 1 413.35 729.46
  Q 410.19 724.09 409.68 718.47
  C 408.68 707.61 413.25 695.54 422.92 689.72
  A 1.74 1.73 40.9 0 1 424.50 689.61
  Q 453.13 701.90 482.81 700.99
  Z"
/>
<path fill="#15201f" d="
  M 486.56 776.92
  Q 528.76 776.91 571.62 779.21
  Q 589.91 780.18 607.26 782.12
  C 609.79 782.40 625.59 783.88 625.59 787.76
  C 625.59 791.65 609.79 793.13 607.26 793.41
  Q 589.92 795.36 571.62 796.34
  Q 528.76 798.64 486.56 798.64
  Q 444.37 798.65 401.50 796.36
  Q 383.21 795.38 365.87 793.44
  C 363.33 793.16 347.53 791.68 347.53 787.80
  C 347.53 783.91 363.33 782.43 365.87 782.15
  Q 383.21 780.20 401.50 779.22
  Q 444.36 776.92 486.56 776.92
  Z"
/>
</svg>
